<?xml version="1.0" encoding="utf-8"?>
<!-- Generator: Adobe Illustrator 18.1.1, SVG Export Plug-In . SVG Version: 6.00 Build 0)  -->
<!DOCTYPE svg PUBLIC "-//W3C//DTD SVG 1.1//EN" "http://www.w3.org/Graphics/SVG/1.1/DTD/svg11.dtd">
<svg version="1.1" id="Layer_1" xmlns="http://www.w3.org/2000/svg" xmlns:xlink="http://www.w3.org/1999/xlink" x="0px" y="0px"
	 width="100px" height="100px" viewBox="0 0 100 100" style="enable-background:new 0 0 100 100;" xml:space="preserve">
<g id="J1HkHD_1_">
	<g>
		<path style="fill:#FFFFFF;" d="M67.3,20.9c0,0-0.1-0.3-0.4-0.3c-0.3,0-2.4,0-2.4,0s-0.5,0-0.5,0.5v5c0,0-0.1,0.4,0.4,0.4
			c0.5,0,2.6,0,2.6,0s0.3,0.1,0.4-0.4L67.3,20.9z M67.3,20.9c0,0-0.1-0.3-0.4-0.3c-0.3,0-2.4,0-2.4,0s-0.5,0-0.5,0.5v5
			c0,0-0.1,0.4,0.4,0.4c0.5,0,2.6,0,2.6,0s0.3,0.1,0.4-0.4L67.3,20.9z M67.3,20.9c0,0-0.1-0.3-0.4-0.3c-0.3,0-2.4,0-2.4,0
			s-0.5,0-0.5,0.5v5c0,0-0.1,0.4,0.4,0.4c0.5,0,2.6,0,2.6,0s0.3,0.1,0.4-0.4L67.3,20.9z M67.3,20.9c0,0-0.1-0.3-0.4-0.3
			c-0.3,0-2.4,0-2.4,0s-0.5,0-0.5,0.5v5c0,0-0.1,0.4,0.4,0.4c0.5,0,2.6,0,2.6,0s0.3,0.1,0.4-0.4L67.3,20.9z M67.3,20.9
			c0,0-0.1-0.3-0.4-0.3c-0.3,0-2.4,0-2.4,0s-0.5,0-0.5,0.5v5c0,0-0.1,0.4,0.4,0.4c0.5,0,2.6,0,2.6,0s0.3,0.1,0.4-0.4L67.3,20.9z
			 M67.3,20.9c0,0-0.1-0.3-0.4-0.3c-0.3,0-2.4,0-2.4,0s-0.5,0-0.5,0.5v5c0,0-0.1,0.4,0.4,0.4c0.5,0,2.6,0,2.6,0s0.3,0.1,0.4-0.4
			L67.3,20.9z M67.3,20.9c0,0-0.1-0.3-0.4-0.3c-0.3,0-2.4,0-2.4,0s-0.5,0-0.5,0.5v5c0,0-0.1,0.4,0.4,0.4c0.5,0,2.6,0,2.6,0
			s0.3,0.1,0.4-0.4L67.3,20.9z M67.3,20.9c0,0-0.1-0.3-0.4-0.3c-0.3,0-2.4,0-2.4,0s-0.5,0-0.5,0.5v5c0,0-0.1,0.4,0.4,0.4
			c0.5,0,2.6,0,2.6,0s0.3,0.1,0.4-0.4L67.3,20.9z M67.3,20.9c0,0-0.1-0.3-0.4-0.3c-0.3,0-2.4,0-2.4,0s-0.5,0-0.5,0.5v5
			c0,0-0.1,0.4,0.4,0.4c0.5,0,2.6,0,2.6,0s0.3,0.1,0.4-0.4L67.3,20.9z M67.3,20.9c0,0-0.1-0.3-0.4-0.3c-0.3,0-2.4,0-2.4,0
			s-0.5,0-0.5,0.5v5c0,0-0.1,0.4,0.4,0.4c0.5,0,2.6,0,2.6,0s0.3,0.1,0.4-0.4L67.3,20.9z M67.3,20.9c0,0-0.1-0.3-0.4-0.3
			c-0.3,0-2.4,0-2.4,0s-0.5,0-0.5,0.5v5c0,0-0.1,0.4,0.4,0.4c0.5,0,2.6,0,2.6,0s0.3,0.1,0.4-0.4L67.3,20.9z M67.3,20.9
			c0,0-0.1-0.3-0.4-0.3c-0.3,0-2.4,0-2.4,0s-0.5,0-0.5,0.5v5c0,0-0.1,0.4,0.4,0.4c0.5,0,2.6,0,2.6,0s0.3,0.1,0.4-0.4L67.3,20.9z
			 M67.3,20.9c0,0-0.1-0.3-0.4-0.3c-0.3,0-2.4,0-2.4,0s-0.5,0-0.5,0.5v5c0,0-0.1,0.4,0.4,0.4c0.5,0,2.6,0,2.6,0s0.3,0.1,0.4-0.4
			L67.3,20.9z M67.3,20.9c0,0-0.1-0.3-0.4-0.3c-0.3,0-2.4,0-2.4,0s-0.5,0-0.5,0.5v5c0,0-0.1,0.4,0.4,0.4c0.5,0,2.6,0,2.6,0
			s0.3,0.1,0.4-0.4L67.3,20.9z M67.3,20.9c0,0-0.1-0.3-0.4-0.3c-0.3,0-2.4,0-2.4,0s-0.5,0-0.5,0.5v5c0,0-0.1,0.4,0.4,0.4
			c0.5,0,2.6,0,2.6,0s0.3,0.1,0.4-0.4L67.3,20.9z M73.1,12.1c-0.2,0.7-0.4,1.3-0.6,1.9h1.2C73.5,13.4,73.4,12.8,73.1,12.1z
			 M73.1,12.1c-0.2,0.7-0.4,1.3-0.6,1.9h1.2C73.5,13.4,73.4,12.8,73.1,12.1z M67.3,20.9c0,0-0.1-0.3-0.4-0.3c-0.3,0-2.4,0-2.4,0
			s-0.5,0-0.5,0.5v5c0,0-0.1,0.4,0.4,0.4c0.5,0,2.6,0,2.6,0s0.3,0.1,0.4-0.4L67.3,20.9z M67.3,20.9c0,0-0.1-0.3-0.4-0.3
			c-0.3,0-2.4,0-2.4,0s-0.5,0-0.5,0.5v5c0,0-0.1,0.4,0.4,0.4c0.5,0,2.6,0,2.6,0s0.3,0.1,0.4-0.4L67.3,20.9z M73.1,12.1
			c-0.2,0.7-0.4,1.3-0.6,1.9h1.2C73.5,13.4,73.4,12.8,73.1,12.1z M73.1,12.1c-0.2,0.7-0.4,1.3-0.6,1.9h1.2
			C73.5,13.4,73.4,12.8,73.1,12.1z M67.3,20.9c0,0-0.1-0.3-0.4-0.3c-0.3,0-2.4,0-2.4,0s-0.5,0-0.5,0.5v5c0,0-0.1,0.4,0.4,0.4
			c0.5,0,2.6,0,2.6,0s0.3,0.1,0.4-0.4L67.3,20.9z M67.3,20.9c0,0-0.1-0.3-0.4-0.3c-0.3,0-2.4,0-2.4,0s-0.5,0-0.5,0.5v5
			c0,0-0.1,0.4,0.4,0.4c0.5,0,2.6,0,2.6,0s0.3,0.1,0.4-0.4L67.3,20.9z M73.1,12.1c-0.2,0.7-0.4,1.3-0.6,1.9h1.2
			C73.5,13.4,73.4,12.8,73.1,12.1z M73.1,12.1c-0.2,0.7-0.4,1.3-0.6,1.9h1.2C73.5,13.4,73.4,12.8,73.1,12.1z M67.3,20.9
			c0,0-0.1-0.3-0.4-0.3c-0.3,0-2.4,0-2.4,0s-0.5,0-0.5,0.5v5c0,0-0.1,0.4,0.4,0.4c0.5,0,2.6,0,2.6,0s0.3,0.1,0.4-0.4L67.3,20.9z
			 M96.7,7.7c-1.1-0.3-2.3-0.5-3.4-0.5c-11.1,0-22.3,0-33.4,0c-0.4,0-0.5,0.2-0.7,0.4c-2.1,3.7-4.3,7.3-6.4,11
			c0.2-0.2,0.5-0.3,0.5-0.3h6.2c0,0,0.4-0.1,0.7,0.5c0.3,0.6,0.1,1.1,0.1,1.1l-4.6,6.9h4.1c0,0,0.7,0.6,0.7,1.3
			c0,0.7-0.8,1.1-0.8,1.1L53.3,29c0,0-0.5,0-0.7-0.5c-0.3-0.5-0.2-1-0.2-1l4.6-6.8l-3.7,0c0,0-0.8-0.3-0.8-1.2c0-0.1,0-0.2,0-0.3
			c-0.1,0.2-0.2,0.3-0.3,0.5c-2.1,3.7-4.3,7.4-6.5,11.1c-0.1,0.2-0.2,0.4-0.3,0.6c0.3,0.1,0.5,0.2,0.8,0.3c0,0.9,0,1.8,0,2.7
			c0,0.6-0.1,0.9-0.7,1.1c-0.2,0-0.3,0.2-0.5,0.3c1.4,2.2,2.7,4.4,4,6.6c-1.1,0.7-2.2,1.3-3.3,2l0,0.1c0.1,0,0.2,0,0.3,0
			c2.8-0.3,5.6-0.5,8.4-0.8c1.2-0.1,2.4-0.5,3.7,0c0.1,0.1,0.3,0,0.5,0c3.5-0.3,6.9-0.5,10.4-0.8c0.6,0,1.1-0.1,1.4-0.7
			c0.1-0.2,0.4-0.3,0.6-0.4c1-0.3,1.8-0.9,2.5-1.7c0.4-0.4,0.9-0.8,1.3-1.3c0.2,0.2,0.3,0.3,0.5,0.4c0.4,0.3,0.4,0.6,0.2,1
			c-0.4,0.7-0.7,1.4-1,2.2c-0.2,0.6-0.6,1-1,1.4c-0.3,0.3-0.6,0.6-0.7,1c-0.4,0.8-0.7,1.7-1.1,2.7c-0.6-0.4-1.2-0.7-1.7-1
			c-0.2-0.1-0.4-0.2-0.7-0.2c-1.9,0.2-3.9,0.2-5.8,0.9c-0.6,0.2-1.2,0.4-1.9,0.6c-0.5,0.1-1,0.2-1.4,0.1c-1.2-0.1-2.4-0.4-3.5,0.3
			c0,0,0,0,0,0c-1.4,0.4-2.8,0.9-4.2,1.3c-0.1,0-0.2,0.1-0.4,0.2c0.3,0.1,0.4,0.2,0.6,0.3c2.4,1.1,4.8,2.3,7.2,3.4
			c0.2,0.1,0.4,0.3,0.4,0.4c-0.2,0.9-0.1,1.8-0.8,2.6c-0.3,0.3-0.6,0.7-0.8,1.1c-0.3,0.4-0.4,0.9-0.7,1.3c-1,1.5-2.1,3-3.1,4.6
			c-0.7,1-0.8,2.2-0.5,3.4c0.3,1.4,0.7,2.7,1.1,4c0.2,0.6-0.3,0.6-0.6,0.9c-0.1,0.1-0.4,0-0.6,0c-0.6-0.4-1.2-0.8-1.7-1.1
			c-0.2-0.1-0.4-0.3-0.5-0.5c-0.4-1-1.2-1.6-2.3-1.7c-0.1,0-0.1,0-0.2-0.1c-0.1-0.1-0.3-0.3-0.4-0.5c-0.2-1,0-1.9,1.2-2.5
			c0.8-0.3,1.1-1,1.3-1.7c0.5-1.8,1-3.5,1.5-5.3c0.1-0.3,0.3-0.7,0.5-1c0.3-0.4,0.6-0.7,1-1.1c-1.4-0.2-2.7-0.4-4-0.6
			c-1.1-0.2-2.1-0.3-3.2,0c-0.2,0-0.4,0-0.6,0c-1-0.1-1.9-0.3-2.9-0.4c-0.3,0-0.5-0.2-0.7-0.3c-1.1-0.9-2.1-1.9-3.2-2.9
			c-0.2-0.1-0.3-0.3-0.5-0.4c0,0.2,0.1,0.4,0.2,0.6c0.2,0.5-0.1,0.8-0.6,0.7c-0.2,0-0.5-0.1-0.6,0c-0.4,0.6-1.1,0.6-1.7,0.9
			c-0.2,0.2-0.5,0.3-0.7,0.6c-1.9,3.2-3.8,6.5-5.7,9.7c-0.2,0.4-0.2,0.7,0,1c5,8.4,10,16.7,15,25.1c0.3,0.5,0.7,1,1.1,1.4
			c1.9,2,4.9,2,6.9,0.1c0.5-0.5,1-1.2,1.4-1.8c8-13.4,16-26.7,23.9-40.1c6.5-10.9,13-21.8,19.5-32.6c0.7-1.2,1.3-2.6,1.5-4
			C100.2,10.3,99.1,8.4,96.7,7.7z M64.7,11.1h3.4V12H66v1H68v0.9H66V15h2.1v0.9h-3.4V11.1z M58.7,15.9c-0.1,0-0.2-0.2-0.2-0.3
			c0-0.2,0-0.5,0.1-0.7c0.5,0.1,1,0.2,1.5,0.2c0.2,0,0.4-0.3,0.7-0.4c-0.2-0.2-0.3-0.4-0.5-0.6c-0.3-0.2-0.7-0.2-1-0.4
			c-0.5-0.2-0.7-0.6-0.8-1.2c0-0.6,0.2-1,0.7-1.2c0.8-0.4,1.6-0.4,2.4-0.2c0.1,0,0.2,0.2,0.2,0.3c0,0.2,0,0.5-0.1,0.7
			c-0.5,0-0.9-0.1-1.4-0.1c-0.2,0-0.4,0.2-0.6,0.4c0.2,0.2,0.3,0.4,0.5,0.5c0.3,0.1,0.6,0.2,0.9,0.3c0.6,0.3,0.9,0.7,0.9,1.3
			c0,0.7-0.3,1.1-0.9,1.4C60.3,16.1,59.5,16.1,58.7,15.9z M69.7,26.4c0,0,0,1.1-0.7,1.8c-0.7,0.7-1.7,0.8-1.7,0.8h-3.4
			c0,0-1-0.2-1.6-0.8c-0.6-0.6-0.8-1.7-0.8-1.7v-5.8c0,0,0.2-0.9,0.8-1.6c0.6-0.7,1.6-0.8,1.6-0.8l3.3,0c0,0,0.9,0.1,1.6,0.8
			c0.7,0.7,0.8,1.6,0.8,1.6V26.4z M84.6,11.3c0.8-0.4,1.6-0.3,2.4-0.2c0.1,0,0.2,0.2,0.2,0.3c0,0.2,0,0.4,0,0.6c-0.6,0-1,0-1.5,0
			c-0.2,0-0.4,0.2-0.4,0.4c0,0.1,0.2,0.4,0.3,0.4c0.3,0.2,0.7,0.2,1.1,0.4c0.6,0.2,0.9,0.6,0.9,1.2c0,0.6-0.2,1.1-0.8,1.4
			c-0.8,0.4-1.7,0.3-2.5,0.1c-0.1,0-0.2-0.2-0.2-0.3c0-0.3,0-0.5,0.1-0.7c0.5,0.1,1,0.2,1.5,0.2c0.2,0,0.4-0.8,0.1-1
			c-0.3-0.2-0.7-0.2-1-0.4c-0.5-0.2-0.8-0.7-0.8-1.2C83.9,12,84.1,11.5,84.6,11.3z M71.8,12.6c0-0.1,0.1-0.3,0.1-0.4
			c0.4-1.2,0.4-1.2,1.7-1.1c0.1,0,0.4,0.1,0.4,0.3c0.6,1.5,1.2,3,1.8,4.6c-0.5,0-0.8,0-1.2,0c-0.2,0-0.3-0.3-0.4-0.4
			c-0.1-0.5-0.4-0.7-0.9-0.6c-0.1,0-0.2,0-0.3,0c-0.6-0.1-1,0.1-1.1,0.7c0,0.1-0.3,0.3-0.5,0.3c-0.3,0.1-0.6,0-1,0
			C71,14.8,71.4,13.7,71.8,12.6z M78.9,28.1c0,0.6-0.8,0.9-0.8,0.9s-0.7,0.2-1.3,0c-0.6-0.1-1-0.7-1-0.7l-2.5-5.2c0,0,0,4.8,0,5
			c0,0.2-0.6,0.8-0.6,0.8s-0.7,0.4-1.2,0.1c-0.6-0.3-0.7-0.8-0.7-0.8s-0.1-8.5,0-9.1c0.1-0.6,0.8-0.8,0.8-0.8l1.3,0
			c0.7,0.2,0.9,0.7,0.9,0.7l2.7,5.2c0,0-0.1-4.7,0-5.3c0.1-0.6,0.5-0.8,0.5-0.8s0.2-0.1,0.9-0.1s0.9,1.1,0.9,1.1
			S78.9,27.5,78.9,28.1z M78.3,15.9v-4.8h1.3V15h2v0.9H78.3z M88.2,28.3C88,28.8,87.3,29,87.3,29H81c-0.9-0.2-0.8-0.9-0.8-0.9
			s-0.1-8.5,0-9.1c0-0.6,1-0.8,1-0.8c0.1,0,6,0.1,6,0.1c0.5,0.1,0.7,0.8,0.7,0.8v0.8c-0.1,0.5-0.8,0.7-0.8,0.7h-4.7v1.8
			c0,0,1.5,0,2,0c0.5,0,0.8,0.7,0.8,0.7v1c-0.2,0.4-0.7,0.6-0.7,0.6h-2v2c0,0,3.9,0,4.7,0c0.8,0,0.9,0.7,0.9,0.7V28.3z M89.4,11.2
			h-0.3v0.9h-0.2v-0.9h-0.3V11h0.9V11.2z M90.6,12.1h-0.2v-0.7c0,0,0,0,0-0.1v-0.1l-0.2,0.9H90l-0.2-0.9v0.1c0,0,0,0.1,0,0.1v0.7
			h-0.2V11h0.3l0.2,0.8l0.2-0.8h0.3V12.1z M73.1,12.1c-0.2,0.7-0.4,1.3-0.6,1.9h1.2C73.5,13.4,73.4,12.8,73.1,12.1z M66.8,20.6
			c-0.3,0-2.4,0-2.4,0s-0.5,0-0.5,0.5v5c0,0-0.1,0.4,0.4,0.4c0.5,0,2.6,0,2.6,0s0.3,0.1,0.4-0.4l0-5.2
			C67.3,20.9,67.2,20.6,66.8,20.6z M67.3,20.9c0,0-0.1-0.3-0.4-0.3c-0.3,0-2.4,0-2.4,0s-0.5,0-0.5,0.5v5c0,0-0.1,0.4,0.4,0.4
			c0.5,0,2.6,0,2.6,0s0.3,0.1,0.4-0.4L67.3,20.9z M73.1,12.1c-0.2,0.7-0.4,1.3-0.6,1.9h1.2C73.5,13.4,73.4,12.8,73.1,12.1z
			 M73.1,12.1c-0.2,0.7-0.4,1.3-0.6,1.9h1.2C73.5,13.4,73.4,12.8,73.1,12.1z M67.3,20.9c0,0-0.1-0.3-0.4-0.3c-0.3,0-2.4,0-2.4,0
			s-0.5,0-0.5,0.5v5c0,0-0.1,0.4,0.4,0.4c0.5,0,2.6,0,2.6,0s0.3,0.1,0.4-0.4L67.3,20.9z M67.3,20.9c0,0-0.1-0.3-0.4-0.3
			c-0.3,0-2.4,0-2.4,0s-0.5,0-0.5,0.5v5c0,0-0.1,0.4,0.4,0.4c0.5,0,2.6,0,2.6,0s0.3,0.1,0.4-0.4L67.3,20.9z M73.1,12.1
			c-0.2,0.7-0.4,1.3-0.6,1.9h1.2C73.5,13.4,73.4,12.8,73.1,12.1z M73.1,12.1c-0.2,0.7-0.4,1.3-0.6,1.9h1.2
			C73.5,13.4,73.4,12.8,73.1,12.1z M67.3,20.9c0,0-0.1-0.3-0.4-0.3c-0.3,0-2.4,0-2.4,0s-0.5,0-0.5,0.5v5c0,0-0.1,0.4,0.4,0.4
			c0.5,0,2.6,0,2.6,0s0.3,0.1,0.4-0.4L67.3,20.9z M67.3,20.9c0,0-0.1-0.3-0.4-0.3c-0.3,0-2.4,0-2.4,0s-0.5,0-0.5,0.5v5
			c0,0-0.1,0.4,0.4,0.4c0.5,0,2.6,0,2.6,0s0.3,0.1,0.4-0.4L67.3,20.9z M73.1,12.1c-0.2,0.7-0.4,1.3-0.6,1.9h1.2
			C73.5,13.4,73.4,12.8,73.1,12.1z M73.1,12.1c-0.2,0.7-0.4,1.3-0.6,1.9h1.2C73.5,13.4,73.4,12.8,73.1,12.1z M67.3,20.9
			c0,0-0.1-0.3-0.4-0.3c-0.3,0-2.4,0-2.4,0s-0.5,0-0.5,0.5v5c0,0-0.1,0.4,0.4,0.4c0.5,0,2.6,0,2.6,0s0.3,0.1,0.4-0.4L67.3,20.9z
			 M67.3,20.9c0,0-0.1-0.3-0.4-0.3c-0.3,0-2.4,0-2.4,0s-0.5,0-0.5,0.5v5c0,0-0.1,0.4,0.4,0.4c0.5,0,2.6,0,2.6,0s0.3,0.1,0.4-0.4
			L67.3,20.9z M67.3,20.9c0,0-0.1-0.3-0.4-0.3c-0.3,0-2.4,0-2.4,0s-0.5,0-0.5,0.5v5c0,0-0.1,0.4,0.4,0.4c0.5,0,2.6,0,2.6,0
			s0.3,0.1,0.4-0.4L67.3,20.9z M67.3,20.9c0,0-0.1-0.3-0.4-0.3c-0.3,0-2.4,0-2.4,0s-0.5,0-0.5,0.5v5c0,0-0.1,0.4,0.4,0.4
			c0.5,0,2.6,0,2.6,0s0.3,0.1,0.4-0.4L67.3,20.9z M67.3,20.9c0,0-0.1-0.3-0.4-0.3c-0.3,0-2.4,0-2.4,0s-0.5,0-0.5,0.5v5
			c0,0-0.1,0.4,0.4,0.4c0.5,0,2.6,0,2.6,0s0.3,0.1,0.4-0.4L67.3,20.9z M67.3,20.9c0,0-0.1-0.3-0.4-0.3c-0.3,0-2.4,0-2.4,0
			s-0.5,0-0.5,0.5v5c0,0-0.1,0.4,0.4,0.4c0.5,0,2.6,0,2.6,0s0.3,0.1,0.4-0.4L67.3,20.9z M67.3,20.9c0,0-0.1-0.3-0.4-0.3
			c-0.3,0-2.4,0-2.4,0s-0.5,0-0.5,0.5v5c0,0-0.1,0.4,0.4,0.4c0.5,0,2.6,0,2.6,0s0.3,0.1,0.4-0.4L67.3,20.9z M67.3,20.9
			c0,0-0.1-0.3-0.4-0.3c-0.3,0-2.4,0-2.4,0s-0.5,0-0.5,0.5v5c0,0-0.1,0.4,0.4,0.4c0.5,0,2.6,0,2.6,0s0.3,0.1,0.4-0.4L67.3,20.9z
			 M67.3,20.9c0,0-0.1-0.3-0.4-0.3c-0.3,0-2.4,0-2.4,0s-0.5,0-0.5,0.5v5c0,0-0.1,0.4,0.4,0.4c0.5,0,2.6,0,2.6,0s0.3,0.1,0.4-0.4
			L67.3,20.9z M67.3,20.9c0,0-0.1-0.3-0.4-0.3c-0.3,0-2.4,0-2.4,0s-0.5,0-0.5,0.5v5c0,0-0.1,0.4,0.4,0.4c0.5,0,2.6,0,2.6,0
			s0.3,0.1,0.4-0.4L67.3,20.9z M67.3,20.9c0,0-0.1-0.3-0.4-0.3c-0.3,0-2.4,0-2.4,0s-0.5,0-0.5,0.5v5c0,0-0.1,0.4,0.4,0.4
			c0.5,0,2.6,0,2.6,0s0.3,0.1,0.4-0.4L67.3,20.9z M67.3,20.9c0,0-0.1-0.3-0.4-0.3c-0.3,0-2.4,0-2.4,0s-0.5,0-0.5,0.5v5
			c0,0-0.1,0.4,0.4,0.4c0.5,0,2.6,0,2.6,0s0.3,0.1,0.4-0.4L67.3,20.9z M67.3,20.9c0,0-0.1-0.3-0.4-0.3c-0.3,0-2.4,0-2.4,0
			s-0.5,0-0.5,0.5v5c0,0-0.1,0.4,0.4,0.4c0.5,0,2.6,0,2.6,0s0.3,0.1,0.4-0.4L67.3,20.9z M67.3,20.9c0,0-0.1-0.3-0.4-0.3
			c-0.3,0-2.4,0-2.4,0s-0.5,0-0.5,0.5v5c0,0-0.1,0.4,0.4,0.4c0.5,0,2.6,0,2.6,0s0.3,0.1,0.4-0.4L67.3,20.9z M67.3,20.9
			c0,0-0.1-0.3-0.4-0.3c-0.3,0-2.4,0-2.4,0s-0.5,0-0.5,0.5v5c0,0-0.1,0.4,0.4,0.4c0.5,0,2.6,0,2.6,0s0.3,0.1,0.4-0.4L67.3,20.9z
			 M37,21.3c0-0.5-0.3-0.7-0.7-0.7c-0.6,0-1.3,0-1.9,0c-0.6,0-0.8,0.2-0.8,0.8c0,0.3,0,0.6,0,0.9c0,0.5,0,0.9,0,1.4
			c0,0.4,0,0.9,0,1.3c0,0.3,0,0.7,0,1c0,0.5,0.2,0.7,0.7,0.7c0.7,0,1.4,0,2,0c0.5,0,0.7-0.2,0.7-0.7C37,24.4,37,22.9,37,21.3z
			 M37,21.3c0-0.5-0.3-0.7-0.7-0.7c-0.6,0-1.3,0-1.9,0c-0.6,0-0.8,0.2-0.8,0.8c0,0.3,0,0.6,0,0.9c0,0.5,0,0.9,0,1.4
			c0,0.4,0,0.9,0,1.3c0,0.3,0,0.7,0,1c0,0.5,0.2,0.7,0.7,0.7c0.7,0,1.4,0,2,0c0.5,0,0.7-0.2,0.7-0.7C37,24.4,37,22.9,37,21.3z
			 M18.7,21.2c0-0.3-0.2-0.6-0.5-0.6c-1,0-1.9,0-2.9,0v6c1,0,2,0,3,0c0.2,0,0.5-0.3,0.5-0.5C18.7,24.4,18.7,22.8,18.7,21.2z
			 M28.1,21.2c-0.1-0.2-0.3-0.5-0.5-0.5c-0.9-0.1-1.9,0-2.9,0v1.9c1,0,1.9,0,2.8,0c0.4,0,0.6-0.2,0.6-0.6
			C28.1,21.7,28.2,21.4,28.1,21.2z M37,21.3c0-0.5-0.3-0.7-0.7-0.7c-0.6,0-1.3,0-1.9,0c-0.6,0-0.8,0.2-0.8,0.8c0,0.3,0,0.6,0,0.9
			c0,0.5,0,0.9,0,1.4c0,0.4,0,0.9,0,1.3c0,0.3,0,0.7,0,1c0,0.5,0.2,0.7,0.7,0.7c0.7,0,1.4,0,2,0c0.5,0,0.7-0.2,0.7-0.7
			C37,24.4,37,22.9,37,21.3z M37,21.3c0-0.5-0.3-0.7-0.7-0.7c-0.6,0-1.3,0-1.9,0c-0.6,0-0.8,0.2-0.8,0.8c0,0.3,0,0.6,0,0.9
			c0,0.5,0,0.9,0,1.4c0,0.4,0,0.9,0,1.3c0,0.3,0,0.7,0,1c0,0.5,0.2,0.7,0.7,0.7c0.7,0,1.4,0,2,0c0.5,0,0.7-0.2,0.7-0.7
			C37,24.4,37,22.9,37,21.3z M28.1,21.2c-0.1-0.2-0.3-0.5-0.5-0.5c-0.9-0.1-1.9,0-2.9,0v1.9c1,0,1.9,0,2.8,0c0.4,0,0.6-0.2,0.6-0.6
			C28.1,21.7,28.2,21.4,28.1,21.2z M18.7,21.2c0-0.3-0.2-0.6-0.5-0.6c-1,0-1.9,0-2.9,0v6c1,0,2,0,3,0c0.2,0,0.5-0.3,0.5-0.5
			C18.7,24.4,18.7,22.8,18.7,21.2z M18.7,21.2c0-0.3-0.2-0.6-0.5-0.6c-1,0-1.9,0-2.9,0v6c1,0,2,0,3,0c0.2,0,0.5-0.3,0.5-0.5
			C18.7,24.4,18.7,22.8,18.7,21.2z M22.2,12.1c-0.2,0.7-0.4,1.3-0.6,1.9h1.2C22.6,13.3,22.4,12.8,22.2,12.1z M28.1,21.2
			c-0.1-0.2-0.3-0.5-0.5-0.5c-0.9-0.1-1.9,0-2.9,0v1.9c1,0,1.9,0,2.8,0c0.4,0,0.6-0.2,0.6-0.6C28.1,21.7,28.2,21.4,28.1,21.2z
			 M37,21.3c0-0.5-0.3-0.7-0.7-0.7c-0.6,0-1.3,0-1.9,0c-0.6,0-0.8,0.2-0.8,0.8c0,0.3,0,0.6,0,0.9c0,0.5,0,0.9,0,1.4
			c0,0.4,0,0.9,0,1.3c0,0.3,0,0.7,0,1c0,0.5,0.2,0.7,0.7,0.7c0.7,0,1.4,0,2,0c0.5,0,0.7-0.2,0.7-0.7C37,24.4,37,22.9,37,21.3z
			 M37,21.3c0-0.5-0.3-0.7-0.7-0.7c-0.6,0-1.3,0-1.9,0c-0.6,0-0.8,0.2-0.8,0.8c0,0.3,0,0.6,0,0.9c0,0.5,0,0.9,0,1.4
			c0,0.4,0,0.9,0,1.3c0,0.3,0,0.7,0,1c0,0.5,0.2,0.7,0.7,0.7c0.7,0,1.4,0,2,0c0.5,0,0.7-0.2,0.7-0.7C37,24.4,37,22.9,37,21.3z
			 M28.1,21.2c-0.1-0.2-0.3-0.5-0.5-0.5c-0.9-0.1-1.9,0-2.9,0v1.9c1,0,1.9,0,2.8,0c0.4,0,0.6-0.2,0.6-0.6
			C28.1,21.7,28.2,21.4,28.1,21.2z M22.2,12.1c-0.2,0.7-0.4,1.3-0.6,1.9h1.2C22.6,13.3,22.4,12.8,22.2,12.1z M18.7,21.2
			c0-0.3-0.2-0.6-0.5-0.6c-1,0-1.9,0-2.9,0v6c1,0,2,0,3,0c0.2,0,0.5-0.3,0.5-0.5C18.7,24.4,18.7,22.8,18.7,21.2z M18.7,21.2
			c0-0.3-0.2-0.6-0.5-0.6c-1,0-1.9,0-2.9,0v6c1,0,2,0,3,0c0.2,0,0.5-0.3,0.5-0.5C18.7,24.4,18.7,22.8,18.7,21.2z M22.2,12.1
			c-0.2,0.7-0.4,1.3-0.6,1.9h1.2C22.6,13.3,22.4,12.8,22.2,12.1z M28.1,21.2c-0.1-0.2-0.3-0.5-0.5-0.5c-0.9-0.1-1.9,0-2.9,0v1.9
			c1,0,1.9,0,2.8,0c0.4,0,0.6-0.2,0.6-0.6C28.1,21.7,28.2,21.4,28.1,21.2z M37,21.3c0-0.5-0.3-0.7-0.7-0.7c-0.6,0-1.3,0-1.9,0
			c-0.6,0-0.8,0.2-0.8,0.8c0,0.3,0,0.6,0,0.9c0,0.5,0,0.9,0,1.4c0,0.4,0,0.9,0,1.3c0,0.3,0,0.7,0,1c0,0.5,0.2,0.7,0.7,0.7
			c0.7,0,1.4,0,2,0c0.5,0,0.7-0.2,0.7-0.7C37,24.4,37,22.9,37,21.3z M37,21.3c0-0.5-0.3-0.7-0.7-0.7c-0.6,0-1.3,0-1.9,0
			c-0.6,0-0.8,0.2-0.8,0.8c0,0.3,0,0.6,0,0.9c0,0.5,0,0.9,0,1.4c0,0.4,0,0.9,0,1.3c0,0.3,0,0.7,0,1c0,0.5,0.2,0.7,0.7,0.7
			c0.7,0,1.4,0,2,0c0.5,0,0.7-0.2,0.7-0.7C37,24.4,37,22.9,37,21.3z M28.1,21.2c-0.1-0.2-0.3-0.5-0.5-0.5c-0.9-0.1-1.9,0-2.9,0v1.9
			c1,0,1.9,0,2.8,0c0.4,0,0.6-0.2,0.6-0.6C28.1,21.7,28.2,21.4,28.1,21.2z M22.2,12.1c-0.2,0.7-0.4,1.3-0.6,1.9h1.2
			C22.6,13.3,22.4,12.8,22.2,12.1z M18.7,21.2c0-0.3-0.2-0.6-0.5-0.6c-1,0-1.9,0-2.9,0v6c1,0,2,0,3,0c0.2,0,0.5-0.3,0.5-0.5
			C18.7,24.4,18.7,22.8,18.7,21.2z M18.7,21.2c0-0.3-0.2-0.6-0.5-0.6c-1,0-1.9,0-2.9,0v6c1,0,2,0,3,0c0.2,0,0.5-0.3,0.5-0.5
			C18.7,24.4,18.7,22.8,18.7,21.2z M22.2,12.1c-0.2,0.7-0.4,1.3-0.6,1.9h1.2C22.6,13.3,22.4,12.8,22.2,12.1z M28.1,21.2
			c-0.1-0.2-0.3-0.5-0.5-0.5c-0.9-0.1-1.9,0-2.9,0v1.9c1,0,1.9,0,2.8,0c0.4,0,0.6-0.2,0.6-0.6C28.1,21.7,28.2,21.4,28.1,21.2z
			 M37,21.3c0-0.5-0.3-0.7-0.7-0.7c-0.6,0-1.3,0-1.9,0c-0.6,0-0.8,0.2-0.8,0.8c0,0.3,0,0.6,0,0.9c0,0.5,0,0.9,0,1.4
			c0,0.4,0,0.9,0,1.3c0,0.3,0,0.7,0,1c0,0.5,0.2,0.7,0.7,0.7c0.7,0,1.4,0,2,0c0.5,0,0.7-0.2,0.7-0.7C37,24.4,37,22.9,37,21.3z
			 M49.6,12.3c-0.3-0.2-0.7-0.3-1.1-0.4v1.3c0.4-0.2,0.8-0.3,1.1-0.4C49.7,12.8,49.6,12.4,49.6,12.3z M49.6,12.3
			c-0.3-0.2-0.7-0.3-1.1-0.4v1.3c0.4-0.2,0.8-0.3,1.1-0.4C49.7,12.8,49.6,12.4,49.6,12.3z M37,21.3c0-0.5-0.3-0.7-0.7-0.7
			c-0.6,0-1.3,0-1.9,0c-0.6,0-0.8,0.2-0.8,0.8c0,0.3,0,0.6,0,0.9c0,0.5,0,0.9,0,1.4c0,0.4,0,0.9,0,1.3c0,0.3,0,0.7,0,1
			c0,0.5,0.2,0.7,0.7,0.7c0.7,0,1.4,0,2,0c0.5,0,0.7-0.2,0.7-0.7C37,24.4,37,22.9,37,21.3z M28.1,21.2c-0.1-0.2-0.3-0.5-0.5-0.5
			c-0.9-0.1-1.9,0-2.9,0v1.9c1,0,1.9,0,2.8,0c0.4,0,0.6-0.2,0.6-0.6C28.1,21.7,28.2,21.4,28.1,21.2z M22.2,12.1
			c-0.2,0.7-0.4,1.3-0.6,1.9h1.2C22.6,13.3,22.4,12.8,22.2,12.1z M18.7,21.2c0-0.3-0.2-0.6-0.5-0.6c-1,0-1.9,0-2.9,0v6c1,0,2,0,3,0
			c0.2,0,0.5-0.3,0.5-0.5C18.7,24.4,18.7,22.8,18.7,21.2z M18.7,21.2c0-0.3-0.2-0.6-0.5-0.6c-1,0-1.9,0-2.9,0v6c1,0,2,0,3,0
			c0.2,0,0.5-0.3,0.5-0.5C18.7,24.4,18.7,22.8,18.7,21.2z M22.2,12.1c-0.2,0.7-0.4,1.3-0.6,1.9h1.2C22.6,13.3,22.4,12.8,22.2,12.1z
			 M28.1,21.2c-0.1-0.2-0.3-0.5-0.5-0.5c-0.9-0.1-1.9,0-2.9,0v1.9c1,0,1.9,0,2.8,0c0.4,0,0.6-0.2,0.6-0.6
			C28.1,21.7,28.2,21.4,28.1,21.2z M37,21.3c0-0.5-0.3-0.7-0.7-0.7c-0.6,0-1.3,0-1.9,0c-0.6,0-0.8,0.2-0.8,0.8c0,0.3,0,0.6,0,0.9
			c0,0.5,0,0.9,0,1.4c0,0.4,0,0.9,0,1.3c0,0.3,0,0.7,0,1c0,0.5,0.2,0.7,0.7,0.7c0.7,0,1.4,0,2,0c0.5,0,0.7-0.2,0.7-0.7
			C37,24.4,37,22.9,37,21.3z M49.6,12.3c-0.3-0.2-0.7-0.3-1.1-0.4v1.3c0.4-0.2,0.8-0.3,1.1-0.4C49.7,12.8,49.6,12.4,49.6,12.3z
			 M49.6,12.3c-0.3-0.2-0.7-0.3-1.1-0.4v1.3c0.4-0.2,0.8-0.3,1.1-0.4C49.7,12.8,49.6,12.4,49.6,12.3z M37,21.3
			c0-0.5-0.3-0.7-0.7-0.7c-0.6,0-1.3,0-1.9,0c-0.6,0-0.8,0.2-0.8,0.8c0,0.3,0,0.6,0,0.9c0,0.5,0,0.9,0,1.4c0,0.4,0,0.9,0,1.3
			c0,0.3,0,0.7,0,1c0,0.5,0.2,0.7,0.7,0.7c0.7,0,1.4,0,2,0c0.5,0,0.7-0.2,0.7-0.7C37,24.4,37,22.9,37,21.3z M28.1,21.2
			c-0.1-0.2-0.3-0.5-0.5-0.5c-0.9-0.1-1.9,0-2.9,0v1.9c1,0,1.9,0,2.8,0c0.4,0,0.6-0.2,0.6-0.6C28.1,21.7,28.2,21.4,28.1,21.2z
			 M22.2,12.1c-0.2,0.7-0.4,1.3-0.6,1.9h1.2C22.6,13.3,22.4,12.8,22.2,12.1z M18.7,21.2c0-0.3-0.2-0.6-0.5-0.6c-1,0-1.9,0-2.9,0v6
			c1,0,2,0,3,0c0.2,0,0.5-0.3,0.5-0.5C18.7,24.4,18.7,22.8,18.7,21.2z M18.7,21.2c0-0.3-0.2-0.6-0.5-0.6c-1,0-1.9,0-2.9,0v6
			c1,0,2,0,3,0c0.2,0,0.5-0.3,0.5-0.5C18.7,24.4,18.7,22.8,18.7,21.2z M22.2,12.1c-0.2,0.7-0.4,1.3-0.6,1.9h1.2
			C22.6,13.3,22.4,12.8,22.2,12.1z M28.1,21.2c-0.1-0.2-0.3-0.5-0.5-0.5c-0.9-0.1-1.9,0-2.9,0v1.9c1,0,1.9,0,2.8,0
			c0.4,0,0.6-0.2,0.6-0.6C28.1,21.7,28.2,21.4,28.1,21.2z M37,21.3c0-0.5-0.3-0.7-0.7-0.7c-0.6,0-1.3,0-1.9,0
			c-0.6,0-0.8,0.2-0.8,0.8c0,0.3,0,0.6,0,0.9c0,0.5,0,0.9,0,1.4c0,0.4,0,0.9,0,1.3c0,0.3,0,0.7,0,1c0,0.5,0.2,0.7,0.7,0.7
			c0.7,0,1.4,0,2,0c0.5,0,0.7-0.2,0.7-0.7C37,24.4,37,22.9,37,21.3z M49.6,12.3c-0.3-0.2-0.7-0.3-1.1-0.4v1.3
			c0.4-0.2,0.8-0.3,1.1-0.4C49.7,12.8,49.6,12.4,49.6,12.3z M49.6,12.3c-0.3-0.2-0.7-0.3-1.1-0.4v1.3c0.4-0.2,0.8-0.3,1.1-0.4
			C49.7,12.8,49.6,12.4,49.6,12.3z M37,21.3c0-0.5-0.3-0.7-0.7-0.7c-0.6,0-1.3,0-1.9,0c-0.6,0-0.8,0.2-0.8,0.8c0,0.3,0,0.6,0,0.9
			c0,0.5,0,0.9,0,1.4c0,0.4,0,0.9,0,1.3c0,0.3,0,0.7,0,1c0,0.5,0.2,0.7,0.7,0.7c0.7,0,1.4,0,2,0c0.5,0,0.7-0.2,0.7-0.7
			C37,24.4,37,22.9,37,21.3z M28.1,21.2c-0.1-0.2-0.3-0.5-0.5-0.5c-0.9-0.1-1.9,0-2.9,0v1.9c1,0,1.9,0,2.8,0c0.4,0,0.6-0.2,0.6-0.6
			C28.1,21.7,28.2,21.4,28.1,21.2z M22.2,12.1c-0.2,0.7-0.4,1.3-0.6,1.9h1.2C22.6,13.3,22.4,12.8,22.2,12.1z M18.7,21.2
			c0-0.3-0.2-0.6-0.5-0.6c-1,0-1.9,0-2.9,0v6c1,0,2,0,3,0c0.2,0,0.5-0.3,0.5-0.5C18.7,24.4,18.7,22.8,18.7,21.2z M18.7,21.2
			c0-0.3-0.2-0.6-0.5-0.6c-1,0-1.9,0-2.9,0v6c1,0,2,0,3,0c0.2,0,0.5-0.3,0.5-0.5C18.7,24.4,18.7,22.8,18.7,21.2z M22.2,12.1
			c-0.2,0.7-0.4,1.3-0.6,1.9h1.2C22.6,13.3,22.4,12.8,22.2,12.1z M28.1,21.2c-0.1-0.2-0.3-0.5-0.5-0.5c-0.9-0.1-1.9,0-2.9,0v1.9
			c1,0,1.9,0,2.8,0c0.4,0,0.6-0.2,0.6-0.6C28.1,21.7,28.2,21.4,28.1,21.2z M37,21.3c0-0.5-0.3-0.7-0.7-0.7c-0.6,0-1.3,0-1.9,0
			c-0.6,0-0.8,0.2-0.8,0.8c0,0.3,0,0.6,0,0.9c0,0.5,0,0.9,0,1.4c0,0.4,0,0.9,0,1.3c0,0.3,0,0.7,0,1c0,0.5,0.2,0.7,0.7,0.7
			c0.7,0,1.4,0,2,0c0.5,0,0.7-0.2,0.7-0.7C37,24.4,37,22.9,37,21.3z M49.6,12.3c-0.3-0.2-0.7-0.3-1.1-0.4v1.3
			c0.4-0.2,0.8-0.3,1.1-0.4C49.7,12.8,49.6,12.4,49.6,12.3z M49.6,12.3c-0.3-0.2-0.7-0.3-1.1-0.4v1.3c0.4-0.2,0.8-0.3,1.1-0.4
			C49.7,12.8,49.6,12.4,49.6,12.3z M37,21.3c0-0.5-0.3-0.7-0.7-0.7c-0.6,0-1.3,0-1.9,0c-0.6,0-0.8,0.2-0.8,0.8c0,0.3,0,0.6,0,0.9
			c0,0.5,0,0.9,0,1.4c0,0.4,0,0.9,0,1.3c0,0.3,0,0.7,0,1c0,0.5,0.2,0.7,0.7,0.7c0.7,0,1.4,0,2,0c0.5,0,0.7-0.2,0.7-0.7
			C37,24.4,37,22.9,37,21.3z M28.1,21.2c-0.1-0.2-0.3-0.5-0.5-0.5c-0.9-0.1-1.9,0-2.9,0v1.9c1,0,1.9,0,2.8,0c0.4,0,0.6-0.2,0.6-0.6
			C28.1,21.7,28.2,21.4,28.1,21.2z M22.2,12.1c-0.2,0.7-0.4,1.3-0.6,1.9h1.2C22.6,13.3,22.4,12.8,22.2,12.1z M18.7,21.2
			c0-0.3-0.2-0.6-0.5-0.6c-1,0-1.9,0-2.9,0v6c1,0,2,0,3,0c0.2,0,0.5-0.3,0.5-0.5C18.7,24.4,18.7,22.8,18.7,21.2z M18.7,21.2
			c0-0.3-0.2-0.6-0.5-0.6c-1,0-1.9,0-2.9,0v6c1,0,2,0,3,0c0.2,0,0.5-0.3,0.5-0.5C18.7,24.4,18.7,22.8,18.7,21.2z M22.2,12.1
			c-0.2,0.7-0.4,1.3-0.6,1.9h1.2C22.6,13.3,22.4,12.8,22.2,12.1z M28.1,21.2c-0.1-0.2-0.3-0.5-0.5-0.5c-0.9-0.1-1.9,0-2.9,0v1.9
			c1,0,1.9,0,2.8,0c0.4,0,0.6-0.2,0.6-0.6C28.1,21.7,28.2,21.4,28.1,21.2z M37,21.3c0-0.5-0.3-0.7-0.7-0.7c-0.6,0-1.3,0-1.9,0
			c-0.6,0-0.8,0.2-0.8,0.8c0,0.3,0,0.6,0,0.9c0,0.5,0,0.9,0,1.4c0,0.4,0,0.9,0,1.3c0,0.3,0,0.7,0,1c0,0.5,0.2,0.7,0.7,0.7
			c0.7,0,1.4,0,2,0c0.5,0,0.7-0.2,0.7-0.7C37,24.4,37,22.9,37,21.3z M49.6,12.3c-0.3-0.2-0.7-0.3-1.1-0.4v1.3
			c0.4-0.2,0.8-0.3,1.1-0.4C49.7,12.8,49.6,12.4,49.6,12.3z M49.6,12.3c-0.3-0.2-0.7-0.3-1.1-0.4v1.3c0.4-0.2,0.8-0.3,1.1-0.4
			C49.7,12.8,49.6,12.4,49.6,12.3z M37,21.3c0-0.5-0.3-0.7-0.7-0.7c-0.6,0-1.3,0-1.9,0c-0.6,0-0.8,0.2-0.8,0.8c0,0.3,0,0.6,0,0.9
			c0,0.5,0,0.9,0,1.4c0,0.4,0,0.9,0,1.3c0,0.3,0,0.7,0,1c0,0.5,0.2,0.7,0.7,0.7c0.7,0,1.4,0,2,0c0.5,0,0.7-0.2,0.7-0.7
			C37,24.4,37,22.9,37,21.3z M28.1,21.2c-0.1-0.2-0.3-0.5-0.5-0.5c-0.9-0.1-1.9,0-2.9,0v1.9c1,0,1.9,0,2.8,0c0.4,0,0.6-0.2,0.6-0.6
			C28.1,21.7,28.2,21.4,28.1,21.2z M22.2,12.1c-0.2,0.7-0.4,1.3-0.6,1.9h1.2C22.6,13.3,22.4,12.8,22.2,12.1z M18.7,21.2
			c0-0.3-0.2-0.6-0.5-0.6c-1,0-1.9,0-2.9,0v6c1,0,2,0,3,0c0.2,0,0.5-0.3,0.5-0.5C18.7,24.4,18.7,22.8,18.7,21.2z M58.1,7.1h-16
			c-11.6,0-23.2,0-34.8,0c-1.3,0-2.6,0.2-3.9,0.7C1.5,8.6,0.6,10,0.6,12c-0.1,1.8,0.7,3.4,1.6,5c8.9,15,17.8,29.9,26.8,44.9
			c0.3,0.5,0.6,0.9,0.9,1.4c2-3.5,4-6.8,6-10.4c-0.6-0.1-1.1-0.2-1.6-0.2c-0.7,0-1.4,0.2-2.2,0.3c-0.9,0.1-1.4-0.1-1.8-1
			c-0.3-0.7-0.6-1.5-1-2.1c-0.6-0.9-0.7-1.9-0.2-2.9c0.2-0.4,0.3-0.9,0.4-1.4c0.1-0.4,0.3-0.6,0.7-0.7c0.5-0.1,0.9-0.2,1.4-0.4
			l0-0.1c-0.6-0.4-1.2-0.8-1.8-1.2c-0.2-0.1-0.4-0.2-0.5-0.4c-0.4-0.7-0.8-1.5-1.2-2.3c-0.2-0.5-0.3-1-0.2-1.5
			c0-1.1,1.1-2.2,2.3-2.4c0.9-0.2,2.1,0.4,2.6,1.3c0.2,0.4,0.5,0.8,0.7,1.2c0.1,0.1,0.2,0.3,0.4,0.4c0.5,0.2,0.6,0.6,0.4,1
			c-0.2,0.6-0.1,1,0.2,1.5c0.1,0.2,0.2,0.4,0.3,0.5c0.1,0.4,0.4,0.5,0.8,0.4c1-0.4,1.9-0.4,2.9-0.1c0.5,0.1,1,0.2,1.5,0
			c1.3-0.5,2.6-0.9,3.9-1.4c0.5-0.2,0.9-0.3,1.4-0.5c-0.1-0.2-0.2-0.4-0.2-0.6c-0.8-1.9-1.6-3.8-2.5-5.7c-0.4-0.8-0.4-1.4,0-2.2
			c0.1-0.3,0.3-0.6,0.4-1c0.1-0.4,0.3-0.6,0.7-0.5c0.5,0.1,0.7-0.2,0.9-0.6c1-1.7,2-3.4,3-5.2c0.1-0.1,0.1-0.2,0.2-0.4
			c-0.8,0.5-1.5,0.7-2.3,0.6c-0.8,0-1.6,0-2.4,0c0,0.8,0,1.6,0,2.4c0,0.6-0.3,1-0.8,1.1c-0.9,0.2-1.5-0.3-1.5-1.2c0-2.7,0-5.5,0-8.2
			c0-0.9,0.5-1.3,1.4-1.3c1.2,0,2.4,0,3.6,0c2.1,0,3.2,1.2,3.3,3.2c0,0.5,0,1,0,1.7C51.9,17.8,55,12.5,58.1,7.1z M34,11.1h3.6V12
			h-1.1v3.9h-1.3v-3.9H34V11.1z M13.4,11.1h3.4V12h-2.1v1h1.9v0.9h-1.9V15h2.1v0.9h-3.4V11.1z M21.1,26.2C21,27.9,19.8,29,18.1,29
			c-1.3,0-2.7,0-4,0c-0.8,0-1.2-0.5-1.2-1.3c0-1.4,0-2.7,0-4.1c0-1.3,0-2.7,0-4c0-0.9,0.5-1.3,1.3-1.3c1.3,0,2.6,0,3.9,0
			c1.7,0,2.9,1,3,2.7C21.2,22.7,21.2,24.5,21.1,26.2z M22.2,14.9c-0.6-0.1-1,0.1-1.2,0.8c0,0.1-0.2,0.3-0.3,0.3c-0.3,0-0.7,0-1.1,0
			c0.4-1.2,0.9-2.3,1.3-3.4c0-0.1,0.1-0.3,0.2-0.4c0.5-1.2,0.5-1.2,1.8-1.1c0.1,0,0.3,0.1,0.3,0.2c0.6,1.4,1.1,2.8,1.6,4.2
			c0,0.1,0.1,0.2,0.2,0.4c-0.4,0-0.8,0-1.2,0c-0.1,0-0.3-0.2-0.3-0.4c-0.1-0.6-0.4-0.8-1-0.7C22.3,14.9,22.2,14.9,22.2,14.9z
			 M30.3,27.5c0.3,0.8-0.1,1.5-1,1.6c-0.6,0.1-1-0.2-1.3-0.8c-0.4-1-0.7-2-1.1-3c-0.1-0.3-0.3-0.5-0.6-0.4c-0.6,0-1.1,0-1.7,0
			c0,1,0,2,0,3c0,0.9-0.7,1.5-1.6,1.2c-0.5-0.1-0.8-0.5-0.8-1.1c0-2.8,0-5.7,0-8.5c0-0.7,0.5-1.2,1.3-1.2c1.3,0,2.6,0,4,0
			c1.5,0,2.7,1,2.9,2.5c0.2,1.4,0.1,2.7-1.2,3.7C29.6,25.4,29.9,26.5,30.3,27.5z M30.3,15.9c-0.9,0.3-1.7,0.2-2.7,0
			c0-0.4,0.1-0.7,0.1-1c0.5,0.1,0.9,0.2,1.4,0.2c0.3,0,0.7,0,0.7-0.4c0-0.2-0.3-0.4-0.5-0.6c-0.3-0.2-0.6-0.2-0.9-0.4
			c-0.5-0.2-0.8-0.7-0.8-1.2c0-0.6,0.3-1,0.8-1.2c0.7-0.3,1.5-0.3,2.3-0.1c0.1,0,0.2,0.2,0.2,0.3c0,0.2,0,0.4,0,0.5
			c-0.5,0-1,0-1.5,0c-0.2,0-0.3,0.2-0.5,0.4c0.1,0.1,0.2,0.3,0.4,0.4c0.3,0.1,0.7,0.2,1,0.3c0.7,0.3,0.9,0.6,0.9,1.3
			C31.2,15.2,30.9,15.6,30.3,15.9z M39.4,23.7c0,0.8,0,1.6,0,2.4c0,1.6-1,2.7-2.6,2.9c-1,0.1-1.9,0.1-2.9,0c-1.7-0.2-2.7-1.3-2.7-3
			c0-1.6,0-3.1,0-4.7c0-1.9,1.3-3,3.2-3.1c0.7,0,1.4,0,2,0c1.7,0,2.9,1.2,3,2.9C39.4,22,39.4,22.8,39.4,23.7L39.4,23.7z M44,15.9
			h-3.5v-4.8h3.4V12h-2.1v1h2v0.9h-1.9V15H44V15.9z M48.4,14.1v1.8h-1.3v-4.8c0.9,0,1.8,0,2.8,0c0.6,0,1,0.4,1.1,0.9
			c0.1,0.6-0.1,1.1-0.7,1.4c0.3,0.8,0.6,1.6,1,2.5c-0.5,0-0.8,0-1.2,0c-0.1,0-0.2-0.2-0.3-0.3c-0.1-0.3-0.2-0.7-0.4-1.1
			C49.2,14.2,48.9,14,48.4,14.1z M49.6,12.3c-0.3-0.2-0.7-0.3-1.1-0.4v1.3c0.4-0.2,0.8-0.3,1.1-0.4C49.7,12.8,49.6,12.4,49.6,12.3z
			 M36.2,20.6c-0.6,0-1.3,0-1.9,0c-0.6,0-0.8,0.2-0.8,0.8c0,0.3,0,0.6,0,0.9c0,0.5,0,0.9,0,1.4c0,0.4,0,0.9,0,1.3c0,0.3,0,0.7,0,1
			c0,0.5,0.2,0.7,0.7,0.7c0.7,0,1.4,0,2,0c0.5,0,0.7-0.2,0.7-0.7c0-1.5,0-3.1,0-4.6C37,20.8,36.7,20.6,36.2,20.6z M27.6,20.6
			c-0.9-0.1-1.9,0-2.9,0v1.9c1,0,1.9,0,2.8,0c0.4,0,0.6-0.2,0.6-0.6c0-0.3,0.1-0.6,0-0.8C28,21,27.8,20.7,27.6,20.6z M22.2,12.1
			c-0.2,0.7-0.4,1.3-0.6,1.9h1.2C22.6,13.3,22.4,12.8,22.2,12.1z M18.2,20.6c-1,0-1.9,0-2.9,0v6c1,0,2,0,3,0c0.2,0,0.5-0.3,0.5-0.5
			c0-1.6,0-3.3,0-4.9C18.7,20.8,18.5,20.6,18.2,20.6z M18.7,21.2c0-0.3-0.2-0.6-0.5-0.6c-1,0-1.9,0-2.9,0v6c1,0,2,0,3,0
			c0.2,0,0.5-0.3,0.5-0.5C18.7,24.4,18.7,22.8,18.7,21.2z M22.2,12.1c-0.2,0.7-0.4,1.3-0.6,1.9h1.2C22.6,13.3,22.4,12.8,22.2,12.1z
			 M28.1,21.2c-0.1-0.2-0.3-0.5-0.5-0.5c-0.9-0.1-1.9,0-2.9,0v1.9c1,0,1.9,0,2.8,0c0.4,0,0.6-0.2,0.6-0.6
			C28.1,21.7,28.2,21.4,28.1,21.2z M37,21.3c0-0.5-0.3-0.7-0.7-0.7c-0.6,0-1.3,0-1.9,0c-0.6,0-0.8,0.2-0.8,0.8c0,0.3,0,0.6,0,0.9
			c0,0.5,0,0.9,0,1.4c0,0.4,0,0.9,0,1.3c0,0.3,0,0.7,0,1c0,0.5,0.2,0.7,0.7,0.7c0.7,0,1.4,0,2,0c0.5,0,0.7-0.2,0.7-0.7
			C37,24.4,37,22.9,37,21.3z M49.6,12.3c-0.3-0.2-0.7-0.3-1.1-0.4v1.3c0.4-0.2,0.8-0.3,1.1-0.4C49.7,12.8,49.6,12.4,49.6,12.3z
			 M49.6,12.3c-0.3-0.2-0.7-0.3-1.1-0.4v1.3c0.4-0.2,0.8-0.3,1.1-0.4C49.7,12.8,49.6,12.4,49.6,12.3z M37,21.3
			c0-0.5-0.3-0.7-0.7-0.7c-0.6,0-1.3,0-1.9,0c-0.6,0-0.8,0.2-0.8,0.8c0,0.3,0,0.6,0,0.9c0,0.5,0,0.9,0,1.4c0,0.4,0,0.9,0,1.3
			c0,0.3,0,0.7,0,1c0,0.5,0.2,0.7,0.7,0.7c0.7,0,1.4,0,2,0c0.5,0,0.7-0.2,0.7-0.7C37,24.4,37,22.9,37,21.3z M28.1,21.2
			c-0.1-0.2-0.3-0.5-0.5-0.5c-0.9-0.1-1.9,0-2.9,0v1.9c1,0,1.9,0,2.8,0c0.4,0,0.6-0.2,0.6-0.6C28.1,21.7,28.2,21.4,28.1,21.2z
			 M22.2,12.1c-0.2,0.7-0.4,1.3-0.6,1.9h1.2C22.6,13.3,22.4,12.8,22.2,12.1z M18.7,21.2c0-0.3-0.2-0.6-0.5-0.6c-1,0-1.9,0-2.9,0v6
			c1,0,2,0,3,0c0.2,0,0.5-0.3,0.5-0.5C18.7,24.4,18.7,22.8,18.7,21.2z M18.7,21.2c0-0.3-0.2-0.6-0.5-0.6c-1,0-1.9,0-2.9,0v6
			c1,0,2,0,3,0c0.2,0,0.5-0.3,0.5-0.5C18.7,24.4,18.7,22.8,18.7,21.2z M22.2,12.1c-0.2,0.7-0.4,1.3-0.6,1.9h1.2
			C22.6,13.3,22.4,12.8,22.2,12.1z M28.1,21.2c-0.1-0.2-0.3-0.5-0.5-0.5c-0.9-0.1-1.9,0-2.9,0v1.9c1,0,1.9,0,2.8,0
			c0.4,0,0.6-0.2,0.6-0.6C28.1,21.7,28.2,21.4,28.1,21.2z M37,21.3c0-0.5-0.3-0.7-0.7-0.7c-0.6,0-1.3,0-1.9,0
			c-0.6,0-0.8,0.2-0.8,0.8c0,0.3,0,0.6,0,0.9c0,0.5,0,0.9,0,1.4c0,0.4,0,0.9,0,1.3c0,0.3,0,0.7,0,1c0,0.5,0.2,0.7,0.7,0.7
			c0.7,0,1.4,0,2,0c0.5,0,0.7-0.2,0.7-0.7C37,24.4,37,22.9,37,21.3z M49.6,12.3c-0.3-0.2-0.7-0.3-1.1-0.4v1.3
			c0.4-0.2,0.8-0.3,1.1-0.4C49.7,12.8,49.6,12.4,49.6,12.3z M49.6,12.3c-0.3-0.2-0.7-0.3-1.1-0.4v1.3c0.4-0.2,0.8-0.3,1.1-0.4
			C49.7,12.8,49.6,12.4,49.6,12.3z M37,21.3c0-0.5-0.3-0.7-0.7-0.7c-0.6,0-1.3,0-1.9,0c-0.6,0-0.8,0.2-0.8,0.8c0,0.3,0,0.6,0,0.9
			c0,0.5,0,0.9,0,1.4c0,0.4,0,0.9,0,1.3c0,0.3,0,0.7,0,1c0,0.5,0.2,0.7,0.7,0.7c0.7,0,1.4,0,2,0c0.5,0,0.7-0.2,0.7-0.7
			C37,24.4,37,22.9,37,21.3z M28.1,21.2c-0.1-0.2-0.3-0.5-0.5-0.5c-0.9-0.1-1.9,0-2.9,0v1.9c1,0,1.9,0,2.8,0c0.4,0,0.6-0.2,0.6-0.6
			C28.1,21.7,28.2,21.4,28.1,21.2z M22.2,12.1c-0.2,0.7-0.4,1.3-0.6,1.9h1.2C22.6,13.3,22.4,12.8,22.2,12.1z M18.7,21.2
			c0-0.3-0.2-0.6-0.5-0.6c-1,0-1.9,0-2.9,0v6c1,0,2,0,3,0c0.2,0,0.5-0.3,0.5-0.5C18.7,24.4,18.7,22.8,18.7,21.2z M18.7,21.2
			c0-0.3-0.2-0.6-0.5-0.6c-1,0-1.9,0-2.9,0v6c1,0,2,0,3,0c0.2,0,0.5-0.3,0.5-0.5C18.7,24.4,18.7,22.8,18.7,21.2z M22.2,12.1
			c-0.2,0.7-0.4,1.3-0.6,1.9h1.2C22.6,13.3,22.4,12.8,22.2,12.1z M28.1,21.2c-0.1-0.2-0.3-0.5-0.5-0.5c-0.9-0.1-1.9,0-2.9,0v1.9
			c1,0,1.9,0,2.8,0c0.4,0,0.6-0.2,0.6-0.6C28.1,21.7,28.2,21.4,28.1,21.2z M37,21.3c0-0.5-0.3-0.7-0.7-0.7c-0.6,0-1.3,0-1.9,0
			c-0.6,0-0.8,0.2-0.8,0.8c0,0.3,0,0.6,0,0.9c0,0.5,0,0.9,0,1.4c0,0.4,0,0.9,0,1.3c0,0.3,0,0.7,0,1c0,0.5,0.2,0.7,0.7,0.7
			c0.7,0,1.4,0,2,0c0.5,0,0.7-0.2,0.7-0.7C37,24.4,37,22.9,37,21.3z M49.6,12.3c-0.3-0.2-0.7-0.3-1.1-0.4v1.3
			c0.4-0.2,0.8-0.3,1.1-0.4C49.7,12.8,49.6,12.4,49.6,12.3z M49.6,12.3c-0.3-0.2-0.7-0.3-1.1-0.4v1.3c0.4-0.2,0.8-0.3,1.1-0.4
			C49.7,12.8,49.6,12.4,49.6,12.3z M37,21.3c0-0.5-0.3-0.7-0.7-0.7c-0.6,0-1.3,0-1.9,0c-0.6,0-0.8,0.2-0.8,0.8c0,0.3,0,0.6,0,0.9
			c0,0.5,0,0.9,0,1.4c0,0.4,0,0.9,0,1.3c0,0.3,0,0.7,0,1c0,0.5,0.2,0.7,0.7,0.7c0.7,0,1.4,0,2,0c0.5,0,0.7-0.2,0.7-0.7
			C37,24.4,37,22.9,37,21.3z M28.1,21.2c-0.1-0.2-0.3-0.5-0.5-0.5c-0.9-0.1-1.9,0-2.9,0v1.9c1,0,1.9,0,2.8,0c0.4,0,0.6-0.2,0.6-0.6
			C28.1,21.7,28.2,21.4,28.1,21.2z M22.2,12.1c-0.2,0.7-0.4,1.3-0.6,1.9h1.2C22.6,13.3,22.4,12.8,22.2,12.1z M18.7,21.2
			c0-0.3-0.2-0.6-0.5-0.6c-1,0-1.9,0-2.9,0v6c1,0,2,0,3,0c0.2,0,0.5-0.3,0.5-0.5C18.7,24.4,18.7,22.8,18.7,21.2z M18.7,21.2
			c0-0.3-0.2-0.6-0.5-0.6c-1,0-1.9,0-2.9,0v6c1,0,2,0,3,0c0.2,0,0.5-0.3,0.5-0.5C18.7,24.4,18.7,22.8,18.7,21.2z M22.2,12.1
			c-0.2,0.7-0.4,1.3-0.6,1.9h1.2C22.6,13.3,22.4,12.8,22.2,12.1z M28.1,21.2c-0.1-0.2-0.3-0.5-0.5-0.5c-0.9-0.1-1.9,0-2.9,0v1.9
			c1,0,1.9,0,2.8,0c0.4,0,0.6-0.2,0.6-0.6C28.1,21.7,28.2,21.4,28.1,21.2z M37,21.3c0-0.5-0.3-0.7-0.7-0.7c-0.6,0-1.3,0-1.9,0
			c-0.6,0-0.8,0.2-0.8,0.8c0,0.3,0,0.6,0,0.9c0,0.5,0,0.9,0,1.4c0,0.4,0,0.9,0,1.3c0,0.3,0,0.7,0,1c0,0.5,0.2,0.7,0.7,0.7
			c0.7,0,1.4,0,2,0c0.5,0,0.7-0.2,0.7-0.7C37,24.4,37,22.9,37,21.3z M49.6,12.3c-0.3-0.2-0.7-0.3-1.1-0.4v1.3
			c0.4-0.2,0.8-0.3,1.1-0.4C49.7,12.8,49.6,12.4,49.6,12.3z M49.6,12.3c-0.3-0.2-0.7-0.3-1.1-0.4v1.3c0.4-0.2,0.8-0.3,1.1-0.4
			C49.7,12.8,49.6,12.4,49.6,12.3z M37,21.3c0-0.5-0.3-0.7-0.7-0.7c-0.6,0-1.3,0-1.9,0c-0.6,0-0.8,0.2-0.8,0.8c0,0.3,0,0.6,0,0.9
			c0,0.5,0,0.9,0,1.4c0,0.4,0,0.9,0,1.3c0,0.3,0,0.7,0,1c0,0.5,0.2,0.7,0.7,0.7c0.7,0,1.4,0,2,0c0.5,0,0.7-0.2,0.7-0.7
			C37,24.4,37,22.9,37,21.3z M28.1,21.2c-0.1-0.2-0.3-0.5-0.5-0.5c-0.9-0.1-1.9,0-2.9,0v1.9c1,0,1.9,0,2.8,0c0.4,0,0.6-0.2,0.6-0.6
			C28.1,21.7,28.2,21.4,28.1,21.2z M22.2,12.1c-0.2,0.7-0.4,1.3-0.6,1.9h1.2C22.6,13.3,22.4,12.8,22.2,12.1z M18.7,21.2
			c0-0.3-0.2-0.6-0.5-0.6c-1,0-1.9,0-2.9,0v6c1,0,2,0,3,0c0.2,0,0.5-0.3,0.5-0.5C18.7,24.4,18.7,22.8,18.7,21.2z M18.7,21.2
			c0-0.3-0.2-0.6-0.5-0.6c-1,0-1.9,0-2.9,0v6c1,0,2,0,3,0c0.2,0,0.5-0.3,0.5-0.5C18.7,24.4,18.7,22.8,18.7,21.2z M22.2,12.1
			c-0.2,0.7-0.4,1.3-0.6,1.9h1.2C22.6,13.3,22.4,12.8,22.2,12.1z M28.1,21.2c-0.1-0.2-0.3-0.5-0.5-0.5c-0.9-0.1-1.9,0-2.9,0v1.9
			c1,0,1.9,0,2.8,0c0.4,0,0.6-0.2,0.6-0.6C28.1,21.7,28.2,21.4,28.1,21.2z M37,21.3c0-0.5-0.3-0.7-0.7-0.7c-0.6,0-1.3,0-1.9,0
			c-0.6,0-0.8,0.2-0.8,0.8c0,0.3,0,0.6,0,0.9c0,0.5,0,0.9,0,1.4c0,0.4,0,0.9,0,1.3c0,0.3,0,0.7,0,1c0,0.5,0.2,0.7,0.7,0.7
			c0.7,0,1.4,0,2,0c0.5,0,0.7-0.2,0.7-0.7C37,24.4,37,22.9,37,21.3z M37,21.3c0-0.5-0.3-0.7-0.7-0.7c-0.6,0-1.3,0-1.9,0
			c-0.6,0-0.8,0.2-0.8,0.8c0,0.3,0,0.6,0,0.9c0,0.5,0,0.9,0,1.4c0,0.4,0,0.9,0,1.3c0,0.3,0,0.7,0,1c0,0.5,0.2,0.7,0.7,0.7
			c0.7,0,1.4,0,2,0c0.5,0,0.7-0.2,0.7-0.7C37,24.4,37,22.9,37,21.3z M28.1,21.2c-0.1-0.2-0.3-0.5-0.5-0.5c-0.9-0.1-1.9,0-2.9,0v1.9
			c1,0,1.9,0,2.8,0c0.4,0,0.6-0.2,0.6-0.6C28.1,21.7,28.2,21.4,28.1,21.2z M22.2,12.1c-0.2,0.7-0.4,1.3-0.6,1.9h1.2
			C22.6,13.3,22.4,12.8,22.2,12.1z M18.7,21.2c0-0.3-0.2-0.6-0.5-0.6c-1,0-1.9,0-2.9,0v6c1,0,2,0,3,0c0.2,0,0.5-0.3,0.5-0.5
			C18.7,24.4,18.7,22.8,18.7,21.2z M18.7,21.2c0-0.3-0.2-0.6-0.5-0.6c-1,0-1.9,0-2.9,0v6c1,0,2,0,3,0c0.2,0,0.5-0.3,0.5-0.5
			C18.7,24.4,18.7,22.8,18.7,21.2z M22.2,12.1c-0.2,0.7-0.4,1.3-0.6,1.9h1.2C22.6,13.3,22.4,12.8,22.2,12.1z M28.1,21.2
			c-0.1-0.2-0.3-0.5-0.5-0.5c-0.9-0.1-1.9,0-2.9,0v1.9c1,0,1.9,0,2.8,0c0.4,0,0.6-0.2,0.6-0.6C28.1,21.7,28.2,21.4,28.1,21.2z
			 M37,21.3c0-0.5-0.3-0.7-0.7-0.7c-0.6,0-1.3,0-1.9,0c-0.6,0-0.8,0.2-0.8,0.8c0,0.3,0,0.6,0,0.9c0,0.5,0,0.9,0,1.4
			c0,0.4,0,0.9,0,1.3c0,0.3,0,0.7,0,1c0,0.5,0.2,0.7,0.7,0.7c0.7,0,1.4,0,2,0c0.5,0,0.7-0.2,0.7-0.7C37,24.4,37,22.9,37,21.3z
			 M37,21.3c0-0.5-0.3-0.7-0.7-0.7c-0.6,0-1.3,0-1.9,0c-0.6,0-0.8,0.2-0.8,0.8c0,0.3,0,0.6,0,0.9c0,0.5,0,0.9,0,1.4
			c0,0.4,0,0.9,0,1.3c0,0.3,0,0.7,0,1c0,0.5,0.2,0.7,0.7,0.7c0.7,0,1.4,0,2,0c0.5,0,0.7-0.2,0.7-0.7C37,24.4,37,22.9,37,21.3z
			 M28.1,21.2c-0.1-0.2-0.3-0.5-0.5-0.5c-0.9-0.1-1.9,0-2.9,0v1.9c1,0,1.9,0,2.8,0c0.4,0,0.6-0.2,0.6-0.6
			C28.1,21.7,28.2,21.4,28.1,21.2z M22.2,12.1c-0.2,0.7-0.4,1.3-0.6,1.9h1.2C22.6,13.3,22.4,12.8,22.2,12.1z M18.7,21.2
			c0-0.3-0.2-0.6-0.5-0.6c-1,0-1.9,0-2.9,0v6c1,0,2,0,3,0c0.2,0,0.5-0.3,0.5-0.5C18.7,24.4,18.7,22.8,18.7,21.2z M18.7,21.2
			c0-0.3-0.2-0.6-0.5-0.6c-1,0-1.9,0-2.9,0v6c1,0,2,0,3,0c0.2,0,0.5-0.3,0.5-0.5C18.7,24.4,18.7,22.8,18.7,21.2z M28.1,21.2
			c-0.1-0.2-0.3-0.5-0.5-0.5c-0.9-0.1-1.9,0-2.9,0v1.9c1,0,1.9,0,2.8,0c0.4,0,0.6-0.2,0.6-0.6C28.1,21.7,28.2,21.4,28.1,21.2z
			 M37,21.3c0-0.5-0.3-0.7-0.7-0.7c-0.6,0-1.3,0-1.9,0c-0.6,0-0.8,0.2-0.8,0.8c0,0.3,0,0.6,0,0.9c0,0.5,0,0.9,0,1.4
			c0,0.4,0,0.9,0,1.3c0,0.3,0,0.7,0,1c0,0.5,0.2,0.7,0.7,0.7c0.7,0,1.4,0,2,0c0.5,0,0.7-0.2,0.7-0.7C37,24.4,37,22.9,37,21.3z
			 M37,21.3c0-0.5-0.3-0.7-0.7-0.7c-0.6,0-1.3,0-1.9,0c-0.6,0-0.8,0.2-0.8,0.8c0,0.3,0,0.6,0,0.9c0,0.5,0,0.9,0,1.4
			c0,0.4,0,0.9,0,1.3c0,0.3,0,0.7,0,1c0,0.5,0.2,0.7,0.7,0.7c0.7,0,1.4,0,2,0c0.5,0,0.7-0.2,0.7-0.7C37,24.4,37,22.9,37,21.3z
			 M28.1,21.2c-0.1-0.2-0.3-0.5-0.5-0.5c-0.9-0.1-1.9,0-2.9,0v1.9c1,0,1.9,0,2.8,0c0.4,0,0.6-0.2,0.6-0.6
			C28.1,21.7,28.2,21.4,28.1,21.2z M18.7,21.2c0-0.3-0.2-0.6-0.5-0.6c-1,0-1.9,0-2.9,0v6c1,0,2,0,3,0c0.2,0,0.5-0.3,0.5-0.5
			C18.7,24.4,18.7,22.8,18.7,21.2z M28.1,21.2c-0.1-0.2-0.3-0.5-0.5-0.5c-0.9-0.1-1.9,0-2.9,0v1.9c1,0,1.9,0,2.8,0
			c0.4,0,0.6-0.2,0.6-0.6C28.1,21.7,28.2,21.4,28.1,21.2z M37,21.3c0-0.5-0.3-0.7-0.7-0.7c-0.6,0-1.3,0-1.9,0
			c-0.6,0-0.8,0.2-0.8,0.8c0,0.3,0,0.6,0,0.9c0,0.5,0,0.9,0,1.4c0,0.4,0,0.9,0,1.3c0,0.3,0,0.7,0,1c0,0.5,0.2,0.7,0.7,0.7
			c0.7,0,1.4,0,2,0c0.5,0,0.7-0.2,0.7-0.7C37,24.4,37,22.9,37,21.3z M37,21.3c0-0.5-0.3-0.7-0.7-0.7c-0.6,0-1.3,0-1.9,0
			c-0.6,0-0.8,0.2-0.8,0.8c0,0.3,0,0.6,0,0.9c0,0.5,0,0.9,0,1.4c0,0.4,0,0.9,0,1.3c0,0.3,0,0.7,0,1c0,0.5,0.2,0.7,0.7,0.7
			c0.7,0,1.4,0,2,0c0.5,0,0.7-0.2,0.7-0.7C37,24.4,37,22.9,37,21.3z M28.1,21.2c-0.1-0.2-0.3-0.5-0.5-0.5c-0.9-0.1-1.9,0-2.9,0v1.9
			c1,0,1.9,0,2.8,0c0.4,0,0.6-0.2,0.6-0.6C28.1,21.7,28.2,21.4,28.1,21.2z M44.9,20.6H43v2.6c0.8,0,1.6,0,2.3,0c1,0,1.1-0.1,1.1-1.1
			C46.4,20.6,46.4,20.6,44.9,20.6z"/>
		<path style="fill:#FFFFFF;" d="M67.3,20.9c0,0-0.1-0.3-0.4-0.3c-0.3,0-2.4,0-2.4,0s-0.5,0-0.5,0.5v5c0,0-0.1,0.4,0.4,0.4
			c0.5,0,2.6,0,2.6,0s0.3,0.1,0.4-0.4L67.3,20.9z M67.3,20.9c0,0-0.1-0.3-0.4-0.3c-0.3,0-2.4,0-2.4,0s-0.5,0-0.5,0.5v5
			c0,0-0.1,0.4,0.4,0.4c0.5,0,2.6,0,2.6,0s0.3,0.1,0.4-0.4L67.3,20.9z M67.3,20.9c0,0-0.1-0.3-0.4-0.3c-0.3,0-2.4,0-2.4,0
			s-0.5,0-0.5,0.5v5c0,0-0.1,0.4,0.4,0.4c0.5,0,2.6,0,2.6,0s0.3,0.1,0.4-0.4L67.3,20.9z M67.3,20.9c0,0-0.1-0.3-0.4-0.3
			c-0.3,0-2.4,0-2.4,0s-0.5,0-0.5,0.5v5c0,0-0.1,0.4,0.4,0.4c0.5,0,2.6,0,2.6,0s0.3,0.1,0.4-0.4L67.3,20.9z M67.3,20.9
			c0,0-0.1-0.3-0.4-0.3c-0.3,0-2.4,0-2.4,0s-0.5,0-0.5,0.5v5c0,0-0.1,0.4,0.4,0.4c0.5,0,2.6,0,2.6,0s0.3,0.1,0.4-0.4L67.3,20.9z
			 M67.3,20.9c0,0-0.1-0.3-0.4-0.3c-0.3,0-2.4,0-2.4,0s-0.5,0-0.5,0.5v5c0,0-0.1,0.4,0.4,0.4c0.5,0,2.6,0,2.6,0s0.3,0.1,0.4-0.4
			L67.3,20.9z M67.3,20.9c0,0-0.1-0.3-0.4-0.3c-0.3,0-2.4,0-2.4,0s-0.5,0-0.5,0.5v5c0,0-0.1,0.4,0.4,0.4c0.5,0,2.6,0,2.6,0
			s0.3,0.1,0.4-0.4L67.3,20.9z M67.3,20.9c0,0-0.1-0.3-0.4-0.3c-0.3,0-2.4,0-2.4,0s-0.5,0-0.5,0.5v5c0,0-0.1,0.4,0.4,0.4
			c0.5,0,2.6,0,2.6,0s0.3,0.1,0.4-0.4L67.3,20.9z M67.3,20.9c0,0-0.1-0.3-0.4-0.3c-0.3,0-2.4,0-2.4,0s-0.5,0-0.5,0.5v5
			c0,0-0.1,0.4,0.4,0.4c0.5,0,2.6,0,2.6,0s0.3,0.1,0.4-0.4L67.3,20.9z M67.3,20.9c0,0-0.1-0.3-0.4-0.3c-0.3,0-2.4,0-2.4,0
			s-0.5,0-0.5,0.5v5c0,0-0.1,0.4,0.4,0.4c0.5,0,2.6,0,2.6,0s0.3,0.1,0.4-0.4L67.3,20.9z M67.3,20.9c0,0-0.1-0.3-0.4-0.3
			c-0.3,0-2.4,0-2.4,0s-0.5,0-0.5,0.5v5c0,0-0.1,0.4,0.4,0.4c0.5,0,2.6,0,2.6,0s0.3,0.1,0.4-0.4L67.3,20.9z M67.3,20.9
			c0,0-0.1-0.3-0.4-0.3c-0.3,0-2.4,0-2.4,0s-0.5,0-0.5,0.5v5c0,0-0.1,0.4,0.4,0.4c0.5,0,2.6,0,2.6,0s0.3,0.1,0.4-0.4L67.3,20.9z
			 M67.3,20.9c0,0-0.1-0.3-0.4-0.3c-0.3,0-2.4,0-2.4,0s-0.5,0-0.5,0.5v5c0,0-0.1,0.4,0.4,0.4c0.5,0,2.6,0,2.6,0s0.3,0.1,0.4-0.4
			L67.3,20.9z M67.3,20.9c0,0-0.1-0.3-0.4-0.3c-0.3,0-2.4,0-2.4,0s-0.5,0-0.5,0.5v5c0,0-0.1,0.4,0.4,0.4c0.5,0,2.6,0,2.6,0
			s0.3,0.1,0.4-0.4L67.3,20.9z M67.3,20.9c0,0-0.1-0.3-0.4-0.3c-0.3,0-2.4,0-2.4,0s-0.5,0-0.5,0.5v5c0,0-0.1,0.4,0.4,0.4
			c0.5,0,2.6,0,2.6,0s0.3,0.1,0.4-0.4L67.3,20.9z M67.3,20.9c0,0-0.1-0.3-0.4-0.3c-0.3,0-2.4,0-2.4,0s-0.5,0-0.5,0.5v5
			c0,0-0.1,0.4,0.4,0.4c0.5,0,2.6,0,2.6,0s0.3,0.1,0.4-0.4L67.3,20.9z M67.3,20.9c0,0-0.1-0.3-0.4-0.3c-0.3,0-2.4,0-2.4,0
			s-0.5,0-0.5,0.5v5c0,0-0.1,0.4,0.4,0.4c0.5,0,2.6,0,2.6,0s0.3,0.1,0.4-0.4L67.3,20.9z M67.3,20.9c0,0-0.1-0.3-0.4-0.3
			c-0.3,0-2.4,0-2.4,0s-0.5,0-0.5,0.5v5c0,0-0.1,0.4,0.4,0.4c0.5,0,2.6,0,2.6,0s0.3,0.1,0.4-0.4L67.3,20.9z M67.3,20.9
			c0,0-0.1-0.3-0.4-0.3c-0.3,0-2.4,0-2.4,0s-0.5,0-0.5,0.5v5c0,0-0.1,0.4,0.4,0.4c0.5,0,2.6,0,2.6,0s0.3,0.1,0.4-0.4L67.3,20.9z
			 M67.3,20.9c0,0-0.1-0.3-0.4-0.3c-0.3,0-2.4,0-2.4,0s-0.5,0-0.5,0.5v5c0,0-0.1,0.4,0.4,0.4c0.5,0,2.6,0,2.6,0s0.3,0.1,0.4-0.4
			L67.3,20.9z M96.7,7.7c-1.1-0.3-2.3-0.5-3.4-0.5c-11.1,0-22.3,0-33.4,0c-0.4,0-0.5,0.2-0.7,0.4c-2.1,3.7-4.3,7.3-6.4,11
			c0.2-0.2,0.5-0.3,0.5-0.3h6.2c0,0,0.4-0.1,0.7,0.5c0.3,0.6,0.1,1.1,0.1,1.1l-4.6,6.9h4.1c0,0,0.7,0.6,0.7,1.3
			c0,0.7-0.8,1.1-0.8,1.1L53.3,29c0,0-0.5,0-0.7-0.5c-0.3-0.5-0.2-1-0.2-1l4.6-6.8l-3.7,0c0,0-0.8-0.3-0.8-1.2c0-0.1,0-0.2,0-0.3
			c-0.1,0.2-0.2,0.3-0.3,0.5c-2.1,3.7-4.3,7.4-6.5,11.1c-0.1,0.2-0.2,0.4-0.3,0.6c0.3,0.1,0.5,0.2,0.8,0.3c0,0.9,0,1.8,0,2.7
			c0,0.6-0.1,0.9-0.7,1.1c-0.2,0-0.3,0.2-0.5,0.3c1.4,2.2,2.7,4.4,4,6.6c-1.1,0.7-2.2,1.3-3.3,2l0,0.1c0.1,0,0.2,0,0.3,0
			c2.8-0.3,5.6-0.5,8.4-0.8c1.2-0.1,2.4-0.5,3.7,0c0.1,0.1,0.3,0,0.5,0c3.5-0.3,6.9-0.5,10.4-0.8c0.6,0,1.1-0.1,1.4-0.7
			c0.1-0.2,0.4-0.3,0.6-0.4c1-0.3,1.8-0.9,2.5-1.7c0.4-0.4,0.9-0.8,1.3-1.3c0.2,0.2,0.3,0.3,0.5,0.4c0.4,0.3,0.4,0.6,0.2,1
			c-0.4,0.7-0.7,1.4-1,2.2c-0.2,0.6-0.6,1-1,1.4c-0.3,0.3-0.6,0.6-0.7,1c-0.4,0.8-0.7,1.7-1.1,2.7c-0.6-0.4-1.2-0.7-1.7-1
			c-0.2-0.1-0.4-0.2-0.7-0.2c-1.9,0.2-3.9,0.2-5.8,0.9c-0.6,0.2-1.2,0.4-1.9,0.6c-0.5,0.1-1,0.2-1.4,0.1c-1.2-0.1-2.4-0.4-3.5,0.3
			c0,0,0,0,0,0c-1.4,0.4-2.8,0.9-4.2,1.3c-0.1,0-0.2,0.1-0.4,0.2c0.3,0.1,0.4,0.2,0.6,0.3c2.4,1.1,4.8,2.3,7.2,3.4
			c0.2,0.1,0.4,0.3,0.4,0.4c-0.2,0.9-0.1,1.8-0.8,2.6c-0.3,0.3-0.6,0.7-0.8,1.1c-0.3,0.4-0.4,0.9-0.7,1.3c-1,1.5-2.1,3-3.1,4.6
			c-0.7,1-0.8,2.2-0.5,3.4c0.3,1.4,0.7,2.7,1.1,4c0.2,0.6-0.3,0.6-0.6,0.9c-0.1,0.1-0.4,0-0.6,0c-0.6-0.4-1.2-0.8-1.7-1.1
			c-0.2-0.1-0.4-0.3-0.5-0.5c-0.4-1-1.2-1.6-2.3-1.7c-0.1,0-0.1,0-0.2-0.1c-0.1-0.1-0.3-0.3-0.4-0.5c-0.2-1,0-1.9,1.2-2.5
			c0.8-0.3,1.1-1,1.3-1.7c0.5-1.8,1-3.5,1.5-5.3c0.1-0.3,0.3-0.7,0.5-1c0.3-0.4,0.6-0.7,1-1.1c-1.4-0.2-2.7-0.4-4-0.6
			c-1.1-0.2-2.1-0.3-3.2,0c-0.2,0-0.4,0-0.6,0c-1-0.1-1.9-0.3-2.9-0.4c-0.3,0-0.5-0.2-0.7-0.3c-1.1-0.9-2.1-1.9-3.2-2.9
			c-0.2-0.1-0.3-0.3-0.5-0.4c0,0.2,0.1,0.4,0.2,0.6c0.2,0.5-0.1,0.8-0.6,0.7c-0.2,0-0.5-0.1-0.6,0c-0.4,0.6-1.1,0.6-1.7,0.9
			c-0.2,0.2-0.5,0.3-0.7,0.6c-1.9,3.2-3.8,6.5-5.7,9.7c-0.2,0.4-0.2,0.7,0,1c5,8.4,10,16.7,15,25.1c0.3,0.5,0.7,1,1.1,1.4
			c1.9,2,4.9,2,6.9,0.1c0.5-0.5,1-1.2,1.4-1.8c8-13.4,16-26.7,23.9-40.1c6.5-10.9,13-21.8,19.5-32.6c0.7-1.2,1.3-2.6,1.5-4
			C100.2,10.3,99.1,8.4,96.7,7.7z M64.7,11.1h3.4V12H66v1H68v0.9H66V15h2.1v0.9h-3.4V11.1z M58.7,15.9c-0.1,0-0.2-0.2-0.2-0.3
			c0-0.2,0-0.5,0.1-0.7c0.5,0.1,1,0.2,1.5,0.2c0.2,0,0.4-0.3,0.7-0.4c-0.2-0.2-0.3-0.4-0.5-0.6c-0.3-0.2-0.7-0.2-1-0.4
			c-0.5-0.2-0.7-0.6-0.8-1.2c0-0.6,0.2-1,0.7-1.2c0.8-0.4,1.6-0.4,2.4-0.2c0.1,0,0.2,0.2,0.2,0.3c0,0.2,0,0.5-0.1,0.7
			c-0.5,0-0.9-0.1-1.4-0.1c-0.2,0-0.4,0.2-0.6,0.4c0.2,0.2,0.3,0.4,0.5,0.5c0.3,0.1,0.6,0.2,0.9,0.3c0.6,0.3,0.9,0.7,0.9,1.3
			c0,0.7-0.3,1.1-0.9,1.4C60.3,16.1,59.5,16.1,58.7,15.9z M69.7,26.4c0,0,0,1.1-0.7,1.8c-0.7,0.7-1.7,0.8-1.7,0.8h-3.4
			c0,0-1-0.2-1.6-0.8c-0.6-0.6-0.8-1.7-0.8-1.7v-5.8c0,0,0.2-0.9,0.8-1.6c0.6-0.7,1.6-0.8,1.6-0.8l3.3,0c0,0,0.9,0.1,1.6,0.8
			c0.7,0.7,0.8,1.6,0.8,1.6V26.4z M84.6,11.3c0.8-0.4,1.6-0.3,2.4-0.2c0.1,0,0.2,0.2,0.2,0.3c0,0.2,0,0.4,0,0.6c-0.6,0-1,0-1.5,0
			c-0.2,0-0.4,0.2-0.4,0.4c0,0.1,0.2,0.4,0.3,0.4c0.3,0.2,0.7,0.2,1.1,0.4c0.6,0.2,0.9,0.6,0.9,1.2c0,0.6-0.2,1.1-0.8,1.4
			c-0.8,0.4-1.7,0.3-2.5,0.1c-0.1,0-0.2-0.2-0.2-0.3c0-0.3,0-0.5,0.1-0.7c0.5,0.1,1,0.2,1.5,0.2c0,0,0.1,0,0.1,0
			c0.4-0.1,0.4-0.6,0.1-0.9c0,0-0.1-0.1-0.1-0.1c-0.3-0.2-0.7-0.2-1-0.4c-0.5-0.2-0.8-0.7-0.8-1.2C83.9,12,84.1,11.5,84.6,11.3z
			 M71.8,12.6c0-0.1,0.1-0.3,0.1-0.4c0.4-1.2,0.4-1.2,1.7-1.1c0.1,0,0.4,0.1,0.4,0.3c0.6,1.5,1.2,3,1.8,4.6c-0.5,0-0.8,0-1.2,0
			c-0.2,0-0.3-0.3-0.4-0.4c-0.1-0.5-0.4-0.7-0.9-0.6c-0.1,0-0.2,0-0.3,0c-0.6-0.1-1,0.1-1.1,0.7c0,0.1-0.3,0.3-0.5,0.3
			c-0.3,0.1-0.6,0-1,0C71,14.8,71.4,13.7,71.8,12.6z M78.9,28.1c0,0.6-0.8,0.9-0.8,0.9s-0.7,0.2-1.3,0c-0.6-0.1-1-0.7-1-0.7
			l-2.5-5.2c0,0,0,4.8,0,5c0,0.2-0.6,0.8-0.6,0.8s-0.7,0.4-1.2,0.1c-0.6-0.3-0.7-0.8-0.7-0.8s-0.1-8.5,0-9.1
			c0.1-0.6,0.8-0.8,0.8-0.8l1.3,0c0.7,0.2,0.9,0.7,0.9,0.7l2.7,5.2c0,0-0.1-4.7,0-5.3c0.1-0.6,0.5-0.8,0.5-0.8s0.2-0.1,0.9-0.1
			s0.9,1.1,0.9,1.1S78.9,27.5,78.9,28.1z M78.3,15.9v-4.8h1.3V15h2v0.9H78.3z M88.2,28.3C88,28.8,87.3,29,87.3,29H81
			c-0.9-0.2-0.8-0.9-0.8-0.9s-0.1-8.5,0-9.1c0-0.6,1-0.8,1-0.8c0.1,0,6,0.1,6,0.1c0.5,0.1,0.7,0.8,0.7,0.8v0.8
			c-0.1,0.5-0.8,0.7-0.8,0.7h-4.7v1.8c0,0,1.5,0,2,0c0.5,0,0.8,0.7,0.8,0.7v1c-0.2,0.4-0.7,0.6-0.7,0.6h-2v2c0,0,3.9,0,4.7,0
			c0.8,0,0.9,0.7,0.9,0.7V28.3z M89.4,11.2h-0.3v0.9h-0.2v-0.9h-0.3V11h0.9V11.2z M90.6,12.1h-0.2v-0.7c0,0,0,0,0-0.1v-0.1l-0.2,0.9
			H90l-0.2-0.9v0.1c0,0,0,0.1,0,0.1v0.7h-0.2V11h0.3l0.2,0.8l0.2-0.8h0.3V12.1z M66.8,20.6c-0.3,0-2.4,0-2.4,0s-0.5,0-0.5,0.5v5
			c0,0-0.1,0.4,0.4,0.4c0.5,0,2.6,0,2.6,0s0.3,0.1,0.4-0.4l0-5.2C67.3,20.9,67.2,20.6,66.8,20.6z M67.3,20.9c0,0-0.1-0.3-0.4-0.3
			c-0.3,0-2.4,0-2.4,0s-0.5,0-0.5,0.5v5c0,0-0.1,0.4,0.4,0.4c0.5,0,2.6,0,2.6,0s0.3,0.1,0.4-0.4L67.3,20.9z M67.3,20.9
			c0,0-0.1-0.3-0.4-0.3c-0.3,0-2.4,0-2.4,0s-0.5,0-0.5,0.5v5c0,0-0.1,0.4,0.4,0.4c0.5,0,2.6,0,2.6,0s0.3,0.1,0.4-0.4L67.3,20.9z
			 M67.3,20.9c0,0-0.1-0.3-0.4-0.3c-0.3,0-2.4,0-2.4,0s-0.5,0-0.5,0.5v5c0,0-0.1,0.4,0.4,0.4c0.5,0,2.6,0,2.6,0s0.3,0.1,0.4-0.4
			L67.3,20.9z M67.3,20.9c0,0-0.1-0.3-0.4-0.3c-0.3,0-2.4,0-2.4,0s-0.5,0-0.5,0.5v5c0,0-0.1,0.4,0.4,0.4c0.5,0,2.6,0,2.6,0
			s0.3,0.1,0.4-0.4L67.3,20.9z M67.3,20.9c0,0-0.1-0.3-0.4-0.3c-0.3,0-2.4,0-2.4,0s-0.5,0-0.5,0.5v5c0,0-0.1,0.4,0.4,0.4
			c0.5,0,2.6,0,2.6,0s0.3,0.1,0.4-0.4L67.3,20.9z M67.3,20.9c0,0-0.1-0.3-0.4-0.3c-0.3,0-2.4,0-2.4,0s-0.5,0-0.5,0.5v5
			c0,0-0.1,0.4,0.4,0.4c0.5,0,2.6,0,2.6,0s0.3,0.1,0.4-0.4L67.3,20.9z M67.3,20.9c0,0-0.1-0.3-0.4-0.3c-0.3,0-2.4,0-2.4,0
			s-0.5,0-0.5,0.5v5c0,0-0.1,0.4,0.4,0.4c0.5,0,2.6,0,2.6,0s0.3,0.1,0.4-0.4L67.3,20.9z M67.3,20.9c0,0-0.1-0.3-0.4-0.3
			c-0.3,0-2.4,0-2.4,0s-0.5,0-0.5,0.5v5c0,0-0.1,0.4,0.4,0.4c0.5,0,2.6,0,2.6,0s0.3,0.1,0.4-0.4L67.3,20.9z M67.3,20.9
			c0,0-0.1-0.3-0.4-0.3c-0.3,0-2.4,0-2.4,0s-0.5,0-0.5,0.5v5c0,0-0.1,0.4,0.4,0.4c0.5,0,2.6,0,2.6,0s0.3,0.1,0.4-0.4L67.3,20.9z
			 M67.3,20.9c0,0-0.1-0.3-0.4-0.3c-0.3,0-2.4,0-2.4,0s-0.5,0-0.5,0.5v5c0,0-0.1,0.4,0.4,0.4c0.5,0,2.6,0,2.6,0s0.3,0.1,0.4-0.4
			L67.3,20.9z M67.3,20.9c0,0-0.1-0.3-0.4-0.3c-0.3,0-2.4,0-2.4,0s-0.5,0-0.5,0.5v5c0,0-0.1,0.4,0.4,0.4c0.5,0,2.6,0,2.6,0
			s0.3,0.1,0.4-0.4L67.3,20.9z M67.3,20.9c0,0-0.1-0.3-0.4-0.3c-0.3,0-2.4,0-2.4,0s-0.5,0-0.5,0.5v5c0,0-0.1,0.4,0.4,0.4
			c0.5,0,2.6,0,2.6,0s0.3,0.1,0.4-0.4L67.3,20.9z M67.3,20.9c0,0-0.1-0.3-0.4-0.3c-0.3,0-2.4,0-2.4,0s-0.5,0-0.5,0.5v5
			c0,0-0.1,0.4,0.4,0.4c0.5,0,2.6,0,2.6,0s0.3,0.1,0.4-0.4L67.3,20.9z M67.3,20.9c0,0-0.1-0.3-0.4-0.3c-0.3,0-2.4,0-2.4,0
			s-0.5,0-0.5,0.5v5c0,0-0.1,0.4,0.4,0.4c0.5,0,2.6,0,2.6,0s0.3,0.1,0.4-0.4L67.3,20.9z M67.3,20.9c0,0-0.1-0.3-0.4-0.3
			c-0.3,0-2.4,0-2.4,0s-0.5,0-0.5,0.5v5c0,0-0.1,0.4,0.4,0.4c0.5,0,2.6,0,2.6,0s0.3,0.1,0.4-0.4L67.3,20.9z M67.3,20.9
			c0,0-0.1-0.3-0.4-0.3c-0.3,0-2.4,0-2.4,0s-0.5,0-0.5,0.5v5c0,0-0.1,0.4,0.4,0.4c0.5,0,2.6,0,2.6,0s0.3,0.1,0.4-0.4L67.3,20.9z
			 M67.3,20.9c0,0-0.1-0.3-0.4-0.3c-0.3,0-2.4,0-2.4,0s-0.5,0-0.5,0.5v5c0,0-0.1,0.4,0.4,0.4c0.5,0,2.6,0,2.6,0s0.3,0.1,0.4-0.4
			L67.3,20.9z M67.3,20.9c0,0-0.1-0.3-0.4-0.3c-0.3,0-2.4,0-2.4,0s-0.5,0-0.5,0.5v5c0,0-0.1,0.4,0.4,0.4c0.5,0,2.6,0,2.6,0
			s0.3,0.1,0.4-0.4L67.3,20.9z M67.3,20.9c0,0-0.1-0.3-0.4-0.3c-0.3,0-2.4,0-2.4,0s-0.5,0-0.5,0.5v5c0,0-0.1,0.4,0.4,0.4
			c0.5,0,2.6,0,2.6,0s0.3,0.1,0.4-0.4L67.3,20.9z M67.3,20.9c0,0-0.1-0.3-0.4-0.3c-0.3,0-2.4,0-2.4,0s-0.5,0-0.5,0.5v5
			c0,0-0.1,0.4,0.4,0.4c0.5,0,2.6,0,2.6,0s0.3,0.1,0.4-0.4L67.3,20.9z"/>
		<path style="fill:#FFFFFF;" d="M58.1,7.1h-16c-11.6,0-23.2,0-34.8,0c-1.3,0-2.6,0.2-3.9,0.7C1.5,8.6,0.6,10,0.6,12
			c-0.1,1.8,0.7,3.4,1.6,5c8.9,15,17.8,29.9,26.8,44.9c0.3,0.5,0.6,0.9,0.9,1.4c2-3.5,4-6.8,6-10.4c-0.6-0.1-1.1-0.2-1.6-0.2
			c-0.7,0-1.4,0.2-2.2,0.3c-0.9,0.1-1.4-0.1-1.8-1c-0.3-0.7-0.6-1.5-1-2.1c-0.6-0.9-0.7-1.9-0.2-2.9c0.2-0.4,0.3-0.9,0.4-1.4
			c0.1-0.4,0.3-0.6,0.7-0.7c0.5-0.1,0.9-0.2,1.4-0.4l0-0.1c-0.6-0.4-1.2-0.8-1.8-1.2c-0.2-0.1-0.4-0.2-0.5-0.4
			c-0.4-0.7-0.8-1.5-1.2-2.3c-0.2-0.5-0.3-1-0.2-1.5c0-1.1,1.1-2.2,2.3-2.4c0.9-0.2,2.1,0.4,2.6,1.3c0.2,0.4,0.5,0.8,0.7,1.2
			c0.1,0.1,0.2,0.3,0.4,0.4c0.5,0.2,0.6,0.6,0.4,1c-0.2,0.6-0.1,1,0.2,1.5c0.1,0.2,0.2,0.4,0.3,0.5c0.1,0.4,0.4,0.5,0.8,0.4
			c1-0.4,1.9-0.4,2.9-0.1c0.5,0.1,1,0.2,1.5,0c1.3-0.5,2.6-0.9,3.9-1.4c0.5-0.2,0.9-0.3,1.4-0.5c-0.1-0.2-0.2-0.4-0.2-0.6
			c-0.8-1.9-1.6-3.8-2.5-5.7c-0.4-0.8-0.4-1.4,0-2.2c0.1-0.3,0.3-0.6,0.4-1c0.1-0.4,0.3-0.6,0.7-0.5c0.5,0.1,0.7-0.2,0.9-0.6
			c1-1.7,2-3.4,3-5.2c0.1-0.1,0.1-0.2,0.2-0.4c-0.8,0.5-1.5,0.7-2.3,0.6c-0.8,0-1.6,0-2.4,0c0,0.8,0,1.6,0,2.4c0,0.6-0.3,1-0.8,1.1
			c-0.9,0.2-1.5-0.3-1.5-1.2c0-2.7,0-5.5,0-8.2c0-0.9,0.5-1.3,1.4-1.3c1.2,0,2.4,0,3.6,0c2.1,0,3.2,1.2,3.3,3.2c0,0.5,0,1,0,1.7
			C51.9,17.8,55,12.5,58.1,7.1z M34,11.1h3.6V12h-1.1v3.9h-1.3v-3.9H34V11.1z M13.4,11.1h3.4V12h-2.1v1h1.9v0.9h-1.9V15h2.1v0.9
			h-3.4V11.1z M21.1,26.2C21,27.9,19.8,29,18.1,29c-1.3,0-2.7,0-4,0c-0.8,0-1.2-0.5-1.2-1.3c0-1.4,0-2.7,0-4.1c0-1.3,0-2.7,0-4
			c0-0.9,0.5-1.3,1.3-1.3c1.3,0,2.6,0,3.9,0c1.7,0,2.9,1,3,2.7C21.2,22.7,21.2,24.5,21.1,26.2z M22.2,14.9c-0.6-0.1-1,0.1-1.2,0.8
			c0,0.1-0.2,0.3-0.3,0.3c-0.3,0-0.7,0-1.1,0c0.4-1.2,0.9-2.3,1.3-3.4c0-0.1,0.1-0.3,0.2-0.4c0.5-1.2,0.5-1.2,1.8-1.1
			c0.1,0,0.3,0.1,0.3,0.2c0.6,1.4,1.1,2.8,1.6,4.2c0,0.1,0.1,0.2,0.2,0.4c-0.4,0-0.8,0-1.2,0c-0.1,0-0.3-0.2-0.3-0.4
			c-0.1-0.6-0.4-0.8-1-0.7C22.3,14.9,22.2,14.9,22.2,14.9z M30.3,27.5c0.3,0.8-0.1,1.5-1,1.6c-0.6,0.1-1-0.2-1.3-0.8
			c-0.4-1-0.7-2-1.1-3c-0.1-0.3-0.3-0.5-0.6-0.4c-0.6,0-1.1,0-1.7,0c0,1,0,2,0,3c0,0.9-0.7,1.5-1.6,1.2c-0.5-0.1-0.8-0.5-0.8-1.1
			c0-2.8,0-5.7,0-8.5c0-0.7,0.5-1.2,1.3-1.2c1.3,0,2.6,0,4,0c1.5,0,2.7,1,2.9,2.5c0.2,1.4,0.1,2.7-1.2,3.7
			C29.6,25.4,29.9,26.5,30.3,27.5z M30.3,15.9c-0.9,0.3-1.7,0.2-2.7,0c0-0.4,0.1-0.7,0.1-1c0.5,0.1,0.9,0.2,1.4,0.2
			c0.3,0,0.7,0,0.7-0.4c0-0.2-0.3-0.4-0.5-0.6c-0.3-0.2-0.6-0.2-0.9-0.4c-0.5-0.2-0.8-0.7-0.8-1.2c0-0.6,0.3-1,0.8-1.2
			c0.7-0.3,1.5-0.3,2.3-0.1c0.1,0,0.2,0.2,0.2,0.3c0,0.2,0,0.4,0,0.5c-0.5,0-1,0-1.5,0c-0.2,0-0.3,0.2-0.5,0.4
			c0.1,0.1,0.2,0.3,0.4,0.4c0.3,0.1,0.7,0.2,1,0.3c0.7,0.3,0.9,0.6,0.9,1.3C31.2,15.2,30.9,15.6,30.3,15.9z M39.4,23.7
			c0,0.8,0,1.6,0,2.4c0,1.6-1,2.7-2.6,2.9c-1,0.1-1.9,0.1-2.9,0c-1.7-0.2-2.7-1.3-2.7-3c0-1.6,0-3.1,0-4.7c0-1.9,1.3-3,3.2-3.1
			c0.7,0,1.4,0,2,0c1.7,0,2.9,1.2,3,2.9C39.4,22,39.4,22.8,39.4,23.7L39.4,23.7z M44,15.9h-3.5v-4.8h3.4V12h-2.1v1h2v0.9h-1.9V15H44
			V15.9z M48.4,14.1v1.8h-1.3v-4.8c0.9,0,1.8,0,2.8,0c0.6,0,1,0.4,1.1,0.9c0.1,0.6-0.1,1.1-0.7,1.4c0.3,0.8,0.6,1.6,1,2.5
			c-0.5,0-0.8,0-1.2,0c-0.1,0-0.2-0.2-0.3-0.3c-0.1-0.3-0.2-0.7-0.4-1.1C49.2,14.2,48.9,14,48.4,14.1z"/>
		<path style="fill:#FFFFFF;" d="M43,23.2c0-0.9,0-1.7,0-2.6c0.6,0,1.3,0,1.9,0c1.5,0,1.5,0,1.5,1.5c0,1-0.1,1.1-1.1,1.1
			C44.5,23.2,43.8,23.2,43,23.2z"/>
		<path style="fill:#FFFFFF;" d="M33.5,23.6c0-0.5,0-0.9,0-1.4C33.5,22.7,33.5,23.2,33.5,23.6c0,0.4,0,0.9,0,1.3
			C33.5,24.5,33.5,24.1,33.5,23.6z"/>
		<path style="fill:#FFFFFF;" d="M73.7,14h-1.2c0.2-0.6,0.4-1.2,0.6-1.9C73.4,12.8,73.5,13.4,73.7,14z"/>
		<path style="fill:#FFFFFF;" d="M28.1,22c0,0.4-0.2,0.6-0.6,0.6c-0.9,0-1.8,0-2.8,0v-1.9c1,0,1.9,0,2.9,0c0.2,0,0.4,0.3,0.5,0.5
			C28.2,21.4,28.1,21.7,28.1,22z"/>
		<path style="fill:#FFFFFF;" d="M18.7,26.1c0,0.2-0.3,0.5-0.5,0.5c-1,0.1-1.9,0-3,0v-6c1,0,1.9,0,2.9,0c0.3,0,0.5,0.2,0.5,0.6
			C18.7,22.8,18.7,24.4,18.7,26.1z"/>
		<path style="fill:#FFFFFF;" d="M37,26c0,0.4-0.2,0.7-0.7,0.7c-0.7,0-1.4,0-2,0c-0.5,0-0.7-0.2-0.7-0.7c0-0.3,0-0.7,0-1
			c0-0.4,0-0.9,0-1.3c0-0.5,0-0.9,0-1.4c0-0.3,0-0.6,0-0.9c0-0.6,0.2-0.8,0.8-0.8c0.6,0,1.3,0,1.9,0c0.5,0,0.7,0.2,0.7,0.7
			C37,22.9,37,24.4,37,26z"/>
		<path style="fill:#FFFFFF;" d="M49.6,12.8c-0.3,0.2-0.7,0.3-1.1,0.4v-1.3c0.4,0.1,0.8,0.2,1.1,0.4C49.6,12.4,49.7,12.8,49.6,12.8z
			"/>
		<path style="fill:#FFFFFF;" d="M22.8,14h-1.2c0.2-0.6,0.4-1.1,0.6-1.9C22.4,12.8,22.6,13.3,22.8,14z"/>
	</g>
</g>
<g>
</g>
<g>
</g>
<g>
</g>
<g>
</g>
<g>
</g>
<g>
</g>
</svg>
