<?xml version="1.0" encoding="utf-8"?>
<!-- Generator: Adobe Illustrator 18.1.1, SVG Export Plug-In . SVG Version: 6.00 Build 0)  -->
<!DOCTYPE svg PUBLIC "-//W3C//DTD SVG 1.1//EN" "http://www.w3.org/Graphics/SVG/1.1/DTD/svg11.dtd">
<svg version="1.1" id="Layer_1" xmlns="http://www.w3.org/2000/svg" xmlns:xlink="http://www.w3.org/1999/xlink" x="0px" y="0px"
	 width="200px" height="100px" viewBox="0 0 200 100" style="enable-background:new 0 0 200 100;" xml:space="preserve">
<g>
	<g>
		<path style="fill:#A9263C;" d="M64.6,73.7l-28.5,8c-1.8,0.5-3.7-0.6-4.3-2.4l0,0c-0.5-1.8,0.6-3.7,2.4-4.3l28.5-8
			c1.8-0.5,3.7,0.6,4.3,2.4v0C67.5,71.3,66.5,73.2,64.6,73.7z"/>
		<path style="fill:#F4D7B0;" d="M37.5,74.2l1.7,6.7l-3.4,0.9c-1.7,0.5-3.5-0.6-4-2.3l-0.1-0.4c-0.5-1.7,0.6-3.5,2.3-4L37.5,74.2z"
			/>
	</g>
	<g>
		<path style="fill:#A9263C;" d="M86.9,59.1l29.6-1.8c1.9-0.1,3.5,1.3,3.7,3.2v0c0.1,1.9-1.3,3.5-3.2,3.7L87.3,66
			c-1.9,0.1-3.5-1.3-3.7-3.2v0C83.5,60.9,85,59.2,86.9,59.1z"/>
		<path style="fill:#6C091D;" d="M113.6,64.4l-0.4-6.9l3.5-0.2c1.8-0.1,3.3,1.3,3.4,3l0,0.4c0.1,1.8-1.3,3.3-3,3.5L113.6,64.4z"/>
	</g>
	<g>
		<path style="fill:#DE3751;" d="M87,47.3l29.5-2.4c1.9-0.2,3.6,1.3,3.7,3.2v0c0.2,1.9-1.3,3.6-3.2,3.7l-29.5,2.4
			c-1.9,0.2-3.6-1.3-3.7-3.2v0C83.7,49.1,85.1,47.4,87,47.3z"/>
		<path style="fill:#6C091D;" d="M113.8,52l-0.4-6.9l3.5-0.2c1.8-0.1,3.3,1.3,3.4,3l0,0.4c0.1,1.8-1.3,3.3-3,3.4L113.8,52z"/>
	</g>
	<path style="fill:#DE3751;" d="M88.5,29.8c3.6,0.6,7,1.4,10.2,2.6l-7.4,47.8c-3.4,0.2-6.9,0-10.5-0.6C60.6,76.4,46,62.8,48.1,49
		S68.3,26.7,88.5,29.8z"/>
	<path style="fill:#A9263C;" d="M49.1,45.5c3.4,4.1,23.3,26.6,44.5,19.9l0,0.6l-2.2,14.4c-3.4,0.1-6.9,0-10.5-0.6
		C60.7,76.6,46,62.9,48.1,49.2C48.3,47.9,48.7,46.7,49.1,45.5z"/>
	<path style="fill:#F3BA50;" d="M77.7,79.5c0,0,10.4-24.8,0.5-50.1c0,0,6.4-0.7,8.9,0.8c2.4,1.4,6.5,29.5-2.9,50.3L77.7,79.5z"/>
	<g>
		<path style="fill:#DE3751;" d="M73,72.3L47.5,87.4c-1.6,1-3.8,0.4-4.7-1.2l0,0c-1-1.6-0.4-3.8,1.2-4.7l25.5-15.1
			c1.6-1,3.8-0.4,4.7,1.2v0C75.2,69.2,74.6,71.3,73,72.3z"/>
		<path style="fill:#F4D7B0;" d="M46.8,79.7l3.4,6l-3.1,1.8c-1.6,0.9-3.5,0.3-4.4-1.2l-0.2-0.4c-0.9-1.6-0.3-3.5,1.2-4.4L46.8,79.7z
			"/>
	</g>
	
		<ellipse transform="matrix(0.9571 -0.2899 0.2899 0.9571 -13.4754 13.536)" style="fill:#F4D7B0;" cx="39" cy="52.3" rx="27.6" ry="22.8"/>
	<path style="fill:#F0C69F;" d="M24.2,56.7c2.5,8.1,7.5,14.6,13.6,18.7C26,76.1,15.5,70.2,12.5,60.3c-3-9.9,2.5-20.7,12.6-26.7
		C22.3,40.4,21.7,48.6,24.2,56.7z"/>
	<path style="fill:#452423;" d="M21.3,52.9c0.1,0.3,0.1,0.7,0.1,1l-4,1.2c-0.2-0.2-0.4-0.6-0.5-0.9c-0.4-1.2,0.3-2.5,1.6-2.9
		S20.9,51.7,21.3,52.9z"/>
	<circle style="fill:#FFFFFF;" cx="18" cy="53" r="0.7"/>
	<path style="fill:#452423;" d="M43.6,45.6c0.1,0.3,0.1,0.7,0.1,1l-4,1.2c-0.2-0.2-0.4-0.6-0.5-0.9c-0.4-1.2,0.3-2.5,1.6-2.9
		C42,43.6,43.3,44.3,43.6,45.6z"/>
	<circle style="fill:#FFFFFF;" cx="40.3" cy="45.6" r="0.7"/>
	<path style="fill:#FFFFFF;" d="M47,54.9c2,6.5-2.4,13.6-9.7,15.8c-7.3,2.2-14.9-1.3-16.8-7.8c-0.3-1.1-0.5-2.1-0.5-3.2L45.6,52
		C46.2,52.8,46.6,53.8,47,54.9z"/>
	<path style="fill:#F2F2EB;" d="M32.8,71.4c-5.7,0-10.8-3.3-12.4-8.5c-0.3-1.1-0.5-2.1-0.5-3.2l4.7-1.4
		C26.5,63.4,29.3,67.9,32.8,71.4z"/>
	<path style="fill:#3D1E1C;" d="M72.3,30.9c3.4,11.2-0.4,22.8-8.8,29.9c1.4-4.4,1.6-9.2,0.2-13.8c-4-13.1-19-20.2-33.6-15.7
		c-5.4,1.6-10,4.6-13.4,8.4c-0.2-12.4,7.7-24,20.2-27.8C51.9,7.4,67.7,15.9,72.3,30.9z"/>
	<path style="fill:#3D1E1C;" d="M41.2,29.1c0,0-4.1,10.5-13.9,15.7S18,48.4,18,48.4s6.6-5.4,4.9-10c0,0-9,16-15.6,17.7
		c0,0,2-2.6,2.5-8.7c0.4-6.1-0.9-15,7.3-20.6S32,20.7,32,20.7L41.2,29.1z"/>
	<path style="fill:#3D1E1C;" d="M59.7,29.4c0,0,8.7-14.8,18.5-14.6C88,15.1,97,18.5,102,13.3C106.9,8.1,99.7,25,90,28.2
		C90,28.2,67.8,43,59.7,29.4z"/>
	<path style="fill:#3D1E1C;" d="M38.9,30c0,0,4.5-15.8,14.2-17.1s19.4,0.6,22.8-5.3s0.9,11.8-7.7,16.5C68.2,24,50.5,41.9,38.9,30z"
		/>
	<path style="fill:#3D1E1C;" d="M37.8,29.6c0,0,15.9-14.1,28-9.2s22.1,13.2,30,9.1s-6.9,13.2-20,12.7C75.8,42.2,43.1,50,37.8,29.6z"
		/>
	
		<path style="fill:#DE3751;stroke:#F3BA50;stroke-width:0.5415;stroke-linecap:round;stroke-linejoin:round;stroke-miterlimit:10;" d="
		M45.1,33.1L31.7,48.9c-1.1,1.3-2.9,1.7-4.5,0.9l-6.8-3.3c-3.7-1.8-8,0.6-8.4,4.6c-0.6,4.9-0.8,10.2,0.5,11.3c2,1.6,13.3-5.3,17-7.6
		c0.8-0.5,1.7-0.7,2.6-0.5C37.8,55.3,59,58,59,46c-0.1-9.9-6.4-13.1-10.1-14.1C47.5,31.6,46,32,45.1,33.1z M15.6,47.5
		c2.2-1.4,4.7,0.7,6.6,3c2,2.4,0.4,6-2.8,6.1C13.2,56.8,12.2,49.6,15.6,47.5z M41.4,52c-2.8,0.3-5-2.5-3.8-5.1
		c1.6-3.8,4.1-8.3,6.8-7.1C48.4,41.5,52,50.8,41.4,52z"/>
	<g>
		<path style="fill:#F3BA50;" d="M18.3,28.6c0,0,15.5-3.9,21.7-2c0,0-8.9-11.1-12.1-10.5S18.3,28.6,18.3,28.6z"/>
		<path style="fill:#E79F39;" d="M25.5,22.1c0.6,1.8,1.6,3.4,2.8,4.5c-5.4,0.7-10.2,2-10.2,2s3.7-6.8,6.8-10.4
			C24.9,19.5,25.1,20.8,25.5,22.1z"/>
		<g id="gaSG3n_6_">
			<g>
				<path style="fill:#DE3751;" d="M28.1,25.2c-1.1,0.2,1.3-0.2,0.2,0c-0.1-0.5-0.2-1-0.3-1.4c0-0.2,0-0.2,0.2-0.2
					c0.4,0,0.9-0.1,1.3-0.1c-0.1-0.1-0.1-0.2-0.2-0.3c-0.1-0.1-0.1-0.2,0-0.3c0.2-0.2,0.3-0.4,0.5-0.6c0.2-0.3,0.4-0.5,0.6-0.8
					c-0.1,0-0.2-0.1-0.3-0.1c-0.1,0-0.2-0.1-0.1-0.2c0-0.2,0-0.3,0-0.5c0-0.1,0-0.3,0-0.5c-0.1,0-0.1,0-0.1,0
					c-0.2,0.1-0.4,0.2-0.6,0.2c-0.1,0-0.2,0-0.2-0.1c0-0.1-0.1-0.2-0.1-0.3c0,0.1-0.1,0.1-0.1,0.1c-0.1,0.2-0.3,0.4-0.4,0.7
					c0,0.1-0.1,0.1-0.2,0.1c0-0.1-0.1-0.1-0.1-0.2c0-0.2,0-0.4,0-0.6c0-0.3,0-0.6,0-1c-0.1,0.1-0.2,0.2-0.3,0.2
					c-0.2,0.1-0.2,0.1-0.4-0.1c-0.2-0.3-0.4-0.5-0.6-0.8c-0.1,0.4-0.2,0.7-0.3,1c-0.1,0.2-0.1,0.2-0.3,0.1c-0.1,0-0.3-0.1-0.4-0.1
					c0.1,0.3,0.2,0.5,0.3,0.8c0.1,0.3,0.2,0.5,0.3,0.8c0,0.1,0,0.1,0,0.2c0,0-0.1,0-0.2,0c-0.1,0-0.1-0.1-0.2-0.2
					c-0.2-0.1-0.4-0.3-0.6-0.5c0,0.1,0,0.2,0,0.2c0,0.3,0,0.3-0.3,0.3c-0.2,0-0.4,0-0.7,0c0,0.1,0,0.1,0,0.1
					c0.1,0.2,0.2,0.5,0.3,0.7c0,0.1,0,0.2-0.1,0.2c-0.1,0.1-0.2,0.1-0.2,0.2c0.5,0.3,1,0.6,1.6,0.9c0.1,0.1,0.2,0.2,0.1,0.3
					c0,0.1,0,0.2,0,0.4c0.4-0.1,0.9-0.3,1.3-0.4c0.1,0,0.2,0,0.2,0.1C27.9,24.2,28,24.7,28.1,25.2z"/>
				<path style="fill:#DE3751;" d="M28.1,25.2c-0.1-0.5-0.1-1-0.2-1.5c0-0.1-0.1-0.1-0.2-0.1c-0.4,0.1-0.8,0.3-1.3,0.4
					c0-0.1,0-0.3,0-0.4c0-0.1,0-0.2-0.1-0.3c-0.5-0.3-1-0.6-1.6-0.9c0.1-0.1,0.2-0.1,0.2-0.2C25,22.2,25,22.1,25,22
					c-0.1-0.2-0.2-0.5-0.3-0.7c0,0,0-0.1,0-0.1c0.2,0,0.4,0,0.7,0c0.3,0,0.3,0,0.3-0.3c0-0.1,0-0.1,0-0.2c0.2,0.2,0.4,0.3,0.6,0.5
					c0.1,0.1,0.1,0.1,0.2,0.2c0,0,0.1,0.1,0.2,0c0,0,0.1-0.1,0-0.2c-0.1-0.3-0.2-0.5-0.3-0.8c-0.1-0.2-0.2-0.5-0.3-0.8
					c0.1,0,0.3,0.1,0.4,0.1c0.2,0,0.2,0,0.3-0.1c0.1-0.3,0.2-0.7,0.3-1c0.2,0.3,0.4,0.5,0.6,0.8c0.1,0.2,0.2,0.2,0.4,0.1
					c0.1-0.1,0.2-0.1,0.3-0.2c0,0.3,0,0.7,0,1c0,0.2,0,0.4,0,0.6c0,0.1,0.1,0.1,0.1,0.2c0.1,0,0.1-0.1,0.2-0.1
					c0.1-0.2,0.3-0.4,0.4-0.7c0,0,0.1-0.1,0.1-0.1c0.1,0.1,0.1,0.2,0.1,0.3c0,0.1,0.1,0.1,0.2,0.1c0.2-0.1,0.4-0.2,0.6-0.2
					c0,0,0.1,0,0.1,0c0,0.2,0,0.3,0,0.5c0,0.2,0,0.3,0,0.5c0,0.1,0,0.2,0.1,0.2c0.1,0,0.2,0,0.3,0.1c-0.2,0.3-0.4,0.5-0.6,0.8
					c-0.2,0.2-0.3,0.4-0.5,0.6c-0.1,0.1-0.1,0.2,0,0.3c0.1,0.1,0.1,0.2,0.2,0.3c-0.4,0-0.9,0.1-1.3,0.1c-0.2,0-0.2,0-0.2,0.2
					c0.1,0.5,0.2,1,0.3,1.4C28.2,25.2,28.1,25.2,28.1,25.2z"/>
			</g>
		</g>
	</g>
	<g>
		<g>
			<path style="fill:#FFFFFF;" d="M133.6,39.7c9.9-14,25.6,1.2,37.5,2.9c10.7,1.5,15.8-5.5,18.7-14.8c0.5-1.7-2.1-2.4-2.6-0.7
				c-2.2,7.2-5.7,13.5-14.3,13c-6.2-0.4-11.7-3.9-17.3-6.3c-8.7-3.7-18.5-3.9-24.4,4.6C130.3,39.8,132.6,41.1,133.6,39.7L133.6,39.7
				z"/>
		</g>
	</g>
	<g>
		<g>
			<path style="fill:#FFFFFF;" d="M137.3,54.3c6.3-3,13.5-3.6,20.2-1.2c6,2.1,10.2,7.2,15.9,9.8c9.1,4.2,15.9-0.5,18.9-9.2
				c0.6-1.6-2-2.4-2.6-0.7c-1,3-2.5,6.5-5.5,8c-3.8,1.9-8.2,0.4-11.6-1.6c-4.4-2.6-8-6.2-12.7-8.2c-7.8-3.4-16.5-2.8-24.1,0.8
				C134.3,52.7,135.7,55.1,137.3,54.3L137.3,54.3z"/>
		</g>
	</g>
</g>
<g>
</g>
<g>
</g>
<g>
</g>
<g>
</g>
<g>
</g>
<g>
</g>
</svg>
