<?xml version="1.0" encoding="utf-8"?>
<!-- Generator: Adobe Illustrator 18.1.1, SVG Export Plug-In . SVG Version: 6.00 Build 0)  -->
<!DOCTYPE svg PUBLIC "-//W3C//DTD SVG 1.1//EN" "http://www.w3.org/Graphics/SVG/1.1/DTD/svg11.dtd">
<svg version="1.1" id="Layer_1" xmlns="http://www.w3.org/2000/svg" xmlns:xlink="http://www.w3.org/1999/xlink" x="0px" y="0px"
	 width="444.5px" height="245.3px" viewBox="0 0 444.5 245.3" style="enable-background:new 0 0 444.5 245.3;" xml:space="preserve"
	>
<g>
	<path style="fill:#FFFFFF;" d="M192.5,106.1h3.2v6.3h6.3v-6.3h3.1v15.7h-3.1v-6.9h-6.3v6.9h-3.2V106.1z"/>
	<path style="fill:#FFFFFF;" d="M218,121.1c-1.1,0.6-2.4,0.9-4,0.9c-3.8,0-6.1-2.2-6.1-6c0-3.4,1.8-6.1,5.4-6.1c4.3,0,5.5,2.9,5.5,7
		h-8c0.1,1.9,1.4,2.9,3.3,2.9c1.5,0,2.7-0.5,3.8-1.2V121.1z M216,114.9c-0.1-1.5-0.8-2.7-2.5-2.7c-1.7,0-2.5,1.2-2.7,2.7H216z"/>
	<path style="fill:#FFFFFF;" d="M221.6,104.9h3v16.9h-3V104.9z"/>
	<path style="fill:#FFFFFF;" d="M228,110.2h2.9v1.6h0c0.7-1.1,1.8-1.9,3.6-1.9c3.6,0,4.9,2.8,4.9,6c0,3.2-1.3,6.1-4.9,6.1
		c-1.3,0-2.3-0.3-3.4-1.6h0v6.1h-3V110.2z M231.1,116c0,1.6,0.7,3.8,2.7,3.8c2,0,2.5-2.2,2.5-3.8c0-1.6-0.5-3.7-2.5-3.7
		C231.8,112.3,231.1,114.3,231.1,116z"/>
	<path style="fill:#FFFFFF;" d="M242.1,105.2h3v2.9h-3V105.2z M242.1,110.2h3v11.6h-3V110.2z"/>
	<path style="fill:#FFFFFF;" d="M248.6,110.2h2.9v1.6h0c0.9-1.3,2.2-1.8,3.8-1.8c2.7,0,3.9,1.9,3.9,4.5v7.3h-3v-6.2
		c0-1.4,0-3.3-2-3.3c-2.2,0-2.7,2.4-2.7,3.8v5.7h-3V110.2z"/>
	<path style="fill:#FFFFFF;" d="M273.2,110.2v10.5c0,3.1-1.3,6.1-6.1,6.1c-1.2,0-2.6-0.2-4-0.8l0.2-2.6c0.9,0.5,2.4,1,3.4,1
		c3.3,0,3.5-2.5,3.5-4.5h0c-0.6,1-1.9,1.8-3.6,1.8c-3.4,0-4.7-2.7-4.7-5.9c0-2.8,1.4-6,4.9-6c1.5,0,2.7,0.5,3.6,1.8h0v-1.6H273.2z
		 M270.2,115.9c0-2-0.8-3.6-2.5-3.6c-2,0-2.7,1.9-2.7,3.7c0,1.6,0.8,3.5,2.6,3.5C269.4,119.5,270.2,117.8,270.2,115.9z"/>
	<path style="fill:#FFFFFF;" d="M283.4,106.1h3.2v6.8l5.7-6.8h3.9l-6.5,7.4l6.7,8.3h-4.1l-5.6-7.3h0v7.3h-3.2V106.1z"/>
	<path style="fill:#FFFFFF;" d="M298.5,105.2h3v2.9h-3V105.2z M298.5,110.2h3v11.6h-3V110.2z"/>
	<path style="fill:#FFFFFF;" d="M312.6,120.5L312.6,120.5c-0.9,1.1-2.2,1.6-3.6,1.6c-3.6,0-4.9-2.9-4.9-6.1c0-3.2,1.3-6,4.9-6
		c1.5,0,2.6,0.5,3.5,1.6h0v-6.6h3v16.9h-2.9V120.5z M309.9,119.7c2,0,2.7-2.1,2.7-3.8c0-1.6-0.8-3.7-2.7-3.7c-2,0-2.5,2.1-2.5,3.7
		C307.3,117.6,307.9,119.7,309.9,119.7z"/>
	<path style="fill:#FFFFFF;" d="M325.8,112.6c-0.9-0.3-1.6-0.5-2.7-0.5c-0.8,0-1.8,0.3-1.8,1.3c0,1.8,5.2,0.7,5.2,4.9
		c0,2.7-2.4,3.8-4.9,3.8c-1.1,0-2.3-0.2-3.4-0.5l0.2-2.5c0.9,0.5,1.9,0.8,3,0.8c0.8,0,2-0.3,2-1.4c0-2.3-5.2-0.7-5.2-4.9
		c0-2.5,2.2-3.6,4.5-3.6c1.4,0,2.3,0.2,3.3,0.4L325.8,112.6z"/>
	<path style="fill:#FFFFFF;" d="M334.4,110.2h3.2l2.6,8.6h0l2.3-8.6h3.5l2.5,8.6h0l2.4-8.6h2.9l-3.6,11.6h-3.6l-2.5-8.8h0l-2.5,8.8
		h-3.4L334.4,110.2z"/>
	<path style="fill:#FFFFFF;" d="M356.1,105.2h3v2.9h-3V105.2z M356.1,110.2h3v11.6h-3V110.2z"/>
	<path style="fill:#FFFFFF;" d="M363.5,112.4h-2.2v-2.2h2.2v-2.3l3-1v3.3h2.7v2.2h-2.7v5.4c0,1,0.3,1.9,1.4,1.9
		c0.5,0,1.1-0.1,1.4-0.3l0.1,2.4c-0.6,0.2-1.3,0.3-2.2,0.3c-2.4,0-3.7-1.5-3.7-3.8V112.4z"/>
	<path style="fill:#FFFFFF;" d="M371.5,104.9h3v6.9h0c0.8-1.1,2.1-1.8,3.6-1.8c2.7,0,3.9,1.9,3.9,4.5v7.3h-3v-6.2c0-1.4,0-3.3-2-3.3
		c-2.2,0-2.7,2.4-2.7,3.8v5.7h-3V104.9z"/>
	<path style="fill:#FFFFFF;" d="M192.2,132.9h4c3.4,0,6.5,1,6.5,4.7c0,3.7-2.7,5-6.1,5h-1.3v6h-3.1V132.9z M195.3,140.2h1.1
		c1.6,0,3-0.5,3-2.3c0-1.8-1.4-2.5-3-2.5h-1.1V140.2z"/>
	<path style="fill:#FFFFFF;" d="M205,131.8h3v6.9h0c0.8-1.1,2.1-1.8,3.6-1.8c2.7,0,3.9,1.9,3.9,4.5v7.3h-3v-6.2c0-1.4,0-3.3-2-3.3
		c-2.2,0-2.7,2.4-2.7,3.8v5.7h-3V131.8z"/>
	<path style="fill:#FFFFFF;" d="M223.8,145.5L223.8,145.5l2.8-8.5h3.1l-4.3,11.5c-1,2.6-1.7,5.1-4.8,5.1c-0.7,0-1.4-0.1-2.1-0.3
		l0.2-2.2c0.4,0.1,0.8,0.2,1.6,0.2c1.2,0,2-0.8,2-2.1l-4.4-12.2h3.3L223.8,145.5z"/>
	<path style="fill:#FFFFFF;" d="M238.7,139.5c-0.9-0.3-1.6-0.5-2.7-0.5c-0.8,0-1.8,0.3-1.8,1.3c0,1.8,5.2,0.7,5.2,4.9
		c0,2.7-2.4,3.8-4.9,3.8c-1.1,0-2.3-0.2-3.4-0.5l0.2-2.5c0.9,0.5,1.9,0.8,3,0.8c0.8,0,2-0.3,2-1.4c0-2.3-5.2-0.7-5.2-4.9
		c0-2.5,2.2-3.6,4.5-3.6c1.4,0,2.3,0.2,3.3,0.4L238.7,139.5z"/>
	<path style="fill:#FFFFFF;" d="M242.1,132.1h3v2.9h-3V132.1z M242.1,137.1h3v11.6h-3V137.1z"/>
	<path style="fill:#FFFFFF;" d="M256.1,139.5c-0.5-0.2-1.1-0.4-2-0.4c-1.9,0-3.1,1.5-3.1,3.7c0,2.1,1,3.8,3.1,3.8
		c0.9,0,1.8-0.3,2.3-0.5l0.1,2.5c-0.9,0.3-1.8,0.4-3,0.4c-3.8,0-5.7-2.6-5.7-6.1c0-3.4,2-6,5.6-6c1.2,0,2.1,0.1,2.9,0.4L256.1,139.5
		z"/>
	<path style="fill:#FFFFFF;" d="M259.3,137.7c1.2-0.5,2.7-0.9,4-0.9c3.5,0,5,1.5,5,4.9v1.5c0,1.2,0,2,0,2.9c0,0.9,0.1,1.7,0.1,2.6
		h-2.7c-0.1-0.6-0.1-1.4-0.1-1.7h0c-0.7,1.3-2.2,2-3.6,2c-2,0-4.1-1.2-4.1-3.4c0-1.7,0.8-2.7,2-3.3c1.1-0.6,2.6-0.7,3.9-0.7h1.7
		c0-1.9-0.8-2.5-2.6-2.5c-1.3,0-2.6,0.5-3.6,1.3L259.3,137.7z M262.9,146.7c0.9,0,1.6-0.4,2.1-1c0.5-0.7,0.6-1.5,0.6-2.4h-1.3
		c-1.3,0-3.4,0.2-3.4,2C261,146.3,261.8,146.7,262.9,146.7z"/>
	<path style="fill:#FFFFFF;" d="M271.7,131.8h3v16.9h-3V131.8z"/>
	<path style="fill:#FFFFFF;" d="M284.9,132.9h4.3c4.8,0,9.1,1.6,9.1,7.9c0,6.2-4.3,7.9-9.1,7.9h-4.3V132.9z M288.1,146.2h1.8
		c2.6,0,5.2-2,5.2-5.4c0-3.4-2.5-5.4-5.2-5.4h-1.8V146.2z"/>
	<path style="fill:#FFFFFF;" d="M301.2,132.1h3v2.9h-3V132.1z M301.2,137.1h3v11.6h-3V137.1z"/>
	<path style="fill:#FFFFFF;" d="M314.6,139.5c-0.9-0.3-1.6-0.5-2.7-0.5c-0.8,0-1.8,0.3-1.8,1.3c0,1.8,5.2,0.7,5.2,4.9
		c0,2.7-2.4,3.8-4.9,3.8c-1.1,0-2.3-0.2-3.4-0.5l0.2-2.5c0.9,0.5,1.9,0.8,3,0.8c0.8,0,2-0.3,2-1.4c0-2.3-5.2-0.7-5.2-4.9
		c0-2.5,2.2-3.6,4.5-3.6c1.4,0,2.3,0.2,3.3,0.4L314.6,139.5z"/>
	<path style="fill:#FFFFFF;" d="M318.5,137.7c1.2-0.5,2.7-0.9,4-0.9c3.5,0,5,1.5,5,4.9v1.5c0,1.2,0,2,0,2.9c0,0.9,0.1,1.7,0.1,2.6
		H325c-0.1-0.6-0.1-1.4-0.1-1.7h0c-0.7,1.3-2.2,2-3.6,2c-2,0-4.1-1.2-4.1-3.4c0-1.7,0.8-2.7,2-3.3c1.1-0.6,2.6-0.7,3.9-0.7h1.7
		c0-1.9-0.8-2.5-2.6-2.5c-1.3,0-2.6,0.5-3.6,1.3L318.5,137.7z M322,146.7c0.9,0,1.6-0.4,2.1-1c0.5-0.7,0.6-1.5,0.6-2.4h-1.3
		c-1.3,0-3.4,0.2-3.4,2C320.1,146.3,320.9,146.7,322,146.7z"/>
	<path style="fill:#FFFFFF;" d="M330.7,131.8h3v6.8h0c0.8-1.1,1.9-1.8,3.5-1.8c3.6,0,4.9,2.8,4.9,6c0,3.2-1.3,6.1-4.9,6.1
		c-1.3,0-2.7-0.5-3.6-1.7h0v1.4h-2.9V131.8z M336.4,146.6c2,0,2.5-2.2,2.5-3.8c0-1.6-0.5-3.7-2.5-3.7c-1.9,0-2.7,2.1-2.7,3.7
		C333.8,144.5,334.4,146.6,336.4,146.6z"/>
	<path style="fill:#FFFFFF;" d="M344.8,132.1h3v2.9h-3V132.1z M344.8,137.1h3v11.6h-3V137.1z"/>
	<path style="fill:#FFFFFF;" d="M351.3,131.8h3v16.9h-3V131.8z"/>
	<path style="fill:#FFFFFF;" d="M357.9,132.1h3v2.9h-3V132.1z M357.9,137.1h3v11.6h-3V137.1z"/>
	<path style="fill:#FFFFFF;" d="M365.3,139.3h-2.2v-2.2h2.2v-2.3l3-1v3.3h2.7v2.2h-2.7v5.4c0,1,0.3,1.9,1.4,1.9
		c0.5,0,1.1-0.1,1.4-0.3l0.1,2.4c-0.6,0.2-1.3,0.3-2.2,0.3c-2.4,0-3.7-1.5-3.7-3.8V139.3z"/>
	<path style="fill:#FFFFFF;" d="M373.4,132.1h3v2.9h-3V132.1z M373.4,137.1h3v11.6h-3V137.1z"/>
	<path style="fill:#FFFFFF;" d="M389.2,148c-1.1,0.6-2.4,0.9-4,0.9c-3.8,0-6.1-2.2-6.1-6c0-3.4,1.8-6.1,5.4-6.1c4.3,0,5.5,2.9,5.5,7
		h-8c0.1,1.9,1.4,2.9,3.3,2.9c1.5,0,2.7-0.5,3.8-1.2V148z M387.1,141.7c-0.1-1.5-0.8-2.7-2.5-2.7s-2.5,1.2-2.7,2.7H387.1z"/>
	<path style="fill:#FFFFFF;" d="M399.5,139.5c-0.9-0.3-1.6-0.5-2.7-0.5c-0.8,0-1.8,0.3-1.8,1.3c0,1.8,5.2,0.7,5.2,4.9
		c0,2.7-2.4,3.8-4.9,3.8c-1.1,0-2.3-0.2-3.4-0.5l0.2-2.5c0.9,0.5,1.9,0.8,3,0.8c0.8,0,2-0.3,2-1.4c0-2.3-5.2-0.7-5.2-4.9
		c0-2.5,2.2-3.6,4.5-3.6c1.4,0,2.3,0.2,3.3,0.4L399.5,139.5z"/>
	<path style="fill:#FFFFFF;" d="M200.9,162.7c-1-0.4-2.1-0.7-3.2-0.7c-1.1,0-2.5,0.5-2.5,2.2c0,2.7,6.9,1.6,6.9,6.8
		c0,3.4-2.7,4.7-5.9,4.7c-1.7,0-2.5-0.2-4-0.6l0.3-2.8c1.1,0.6,2.3,1,3.6,1c1.2,0,2.8-0.6,2.8-2c0-3-6.9-1.8-6.9-7
		c0-3.5,2.7-4.8,5.5-4.8c1.4,0,2.6,0.2,3.8,0.6L200.9,162.7z"/>
	<path style="fill:#FFFFFF;" d="M215.6,175.5h-2.9v-1.6h0c-0.9,1.1-2.2,1.8-3.8,1.8c-2.7,0-3.9-1.9-3.9-4.5v-7.3h3v6.2
		c0,1.4,0,3.3,2,3.3c2.2,0,2.7-2.4,2.7-3.8v-5.7h3V175.5z"/>
	<path style="fill:#FFFFFF;" d="M226.5,166.4c-0.5-0.2-1.1-0.4-2-0.4c-1.9,0-3.1,1.5-3.1,3.7c0,2.1,1,3.8,3.1,3.8
		c0.9,0,1.8-0.3,2.3-0.5l0.1,2.5c-0.9,0.3-1.8,0.4-3,0.4c-3.8,0-5.7-2.6-5.7-6.1c0-3.4,2-6,5.6-6c1.2,0,2.1,0.1,2.9,0.4L226.5,166.4
		z"/>
	<path style="fill:#FFFFFF;" d="M236.8,166.4c-0.5-0.2-1.1-0.4-2-0.4c-1.9,0-3.1,1.5-3.1,3.7c0,2.1,1,3.8,3.1,3.8
		c0.9,0,1.8-0.3,2.3-0.5l0.1,2.5c-0.9,0.3-1.8,0.4-3,0.4c-3.8,0-5.7-2.6-5.7-6.1c0-3.4,2-6,5.6-6c1.2,0,2.1,0.1,2.9,0.4L236.8,166.4
		z"/>
	<path style="fill:#FFFFFF;" d="M248.8,174.8c-1.1,0.6-2.4,0.9-4,0.9c-3.8,0-6.1-2.2-6.1-6c0-3.4,1.8-6.1,5.4-6.1
		c4.3,0,5.5,2.9,5.5,7h-8c0.1,1.9,1.4,2.9,3.3,2.9c1.5,0,2.7-0.5,3.8-1.2V174.8z M246.8,168.6c-0.1-1.5-0.8-2.7-2.5-2.7
		s-2.5,1.2-2.7,2.7H246.8z"/>
	<path style="fill:#FFFFFF;" d="M261.6,174.8c-1.1,0.6-2.4,0.9-4,0.9c-3.8,0-6.1-2.2-6.1-6c0-3.4,1.8-6.1,5.4-6.1
		c4.3,0,5.5,2.9,5.5,7h-8c0.1,1.9,1.4,2.9,3.3,2.9c1.5,0,2.7-0.5,3.8-1.2V174.8z M259.6,168.6c-0.1-1.5-0.8-2.7-2.5-2.7
		s-2.5,1.2-2.7,2.7H259.6z"/>
	<path style="fill:#FFFFFF;" d="M272.8,174.2L272.8,174.2c-0.9,1.1-2.2,1.6-3.6,1.6c-3.6,0-4.9-2.9-4.9-6.1c0-3.2,1.3-6,4.9-6
		c1.5,0,2.6,0.5,3.5,1.6h0v-6.6h3v16.9h-2.9V174.2z M270,173.4c2,0,2.7-2.1,2.7-3.8c0-1.6-0.8-3.7-2.7-3.7c-2,0-2.5,2.1-2.5,3.7
		C267.5,171.3,268,173.4,270,173.4z"/>
</g>
<rect x="0" y="0" style="fill:none;" width="444.5" height="245.3"/>
<g>
	<g>
		<path style="fill:#FFFFFF;" d="M54.1,181.7c-2.6,0-5,1.9-5,6.4c0,4.5,2.4,6.5,5,6.5c2.6,0,5-1.9,5-6.5
			C59.1,183.7,56.7,181.7,54.1,181.7z M54.1,192.9c-1.5,0-2.6-1.2-2.6-4.7c0-3.4,1.2-4.7,2.6-4.7c1.5,0,2.6,1.2,2.6,4.7
			C56.7,191.6,55.5,192.9,54.1,192.9z"/>
		<path style="fill:#FFFFFF;" d="M65.3,185.1c-1.5,0-2.1,1-2.5,1.6h0c0-0.5,0-1-0.1-1.4h-2.1c0,0.4,0.1,1,0.1,1.5v7.7H63v-5.4
			c0-1.2,0.4-2.2,1.6-2.2c0.9,0,1.3,0.6,1.3,2v5.5H68v-6C68,186.6,67.4,185.1,65.3,185.1z"/>
		<path style="fill:#FFFFFF;" d="M74.8,186.8v-1.6h-1.8v-2.6l-2.2,0.7v1.9h-1.5v1.6h1.5v5.1c0,1.9,0.9,2.7,2.6,2.7
			c0.7,0,1.1-0.1,1.5-0.3v-1.6c-0.2,0.1-0.4,0.2-0.8,0.2c-0.6,0-1-0.3-1-1.3v-4.8H74.8z"/>
		<path style="fill:#FFFFFF;" d="M82.9,192.8v-4c0-2.3-0.7-3.7-3.5-3.7c-1.4,0-2.3,0.4-2.9,0.7l0.1,1.8c0.4-0.4,1.4-0.9,2.5-0.9
			c1.3,0,1.7,0.8,1.7,1.8v0.3h-0.5c-2.8,0-4.9,0.6-4.9,3.1c0,1.7,1.3,2.7,2.8,2.7c1.3,0,2-0.6,2.6-1.4h0c0,0.5,0,0.9,0.1,1.3h2
			C83,194.1,82.9,193.5,82.9,192.8z M80.8,190.4c0,1.7-0.5,2.6-1.8,2.6c-0.9,0-1.4-0.6-1.4-1.4c0-1.3,1.1-1.7,3-1.7h0.2V190.4z"/>
		<path style="fill:#FFFFFF;" d="M89.3,185.1c-1.4,0-2.1,1.1-2.4,1.8h0c0-0.6,0-1.1-0.1-1.7h-2c0,0.4,0.1,1,0.1,1.5v7.7h2.2v-5.1
			c0-1.7,1-2.3,1.9-2.3c0.2,0,0.4,0,0.6,0.1v-2.1C89.5,185.1,89.4,185.1,89.3,185.1z"/>
		<path style="fill:#FFFFFF;" d="M91.2,185.2v9.2h2.2v-9.2H91.2z M91.1,181.3v2.2h2.3v-2.2H91.1z"/>
		<path style="fill:#FFFFFF;" d="M99.3,185.1c-1.9,0-4.1,1-4.1,4.8c0,3.9,2.2,4.8,4.1,4.8c1.9,0,4.1-0.9,4.1-4.8
			C103.3,186,101.2,185.1,99.3,185.1z M99.3,193c-1.4,0-1.8-1.6-1.8-3.2c0-1.5,0.3-3.2,1.8-3.2c1.4,0,1.8,1.6,1.8,3.2
			C101,191.4,100.7,193,99.3,193z"/>
	</g>
	<g>
		<path style="fill:#FFFFFF;" d="M170.5,63.3v1.1h2.2v5.9h1.2v-5.9h2.2v-1.1H170.5z"/>
		<path style="fill:#FFFFFF;" d="M182.5,63.3l-1.9,5.5h0l-1.9-5.5H177v7h1.2v-5.4h0l1.9,5.4h1l1.9-5.4h0v5.4h1.2v-7H182.5z"/>
	</g>
	<g>
		<path style="fill:#FFFFFF;" d="M77,88.5c0,2.2,1.8,2.2,2.2,2.2c0.5,0,3.1-0.1,3.1-4.2v-1C80.2,85.5,77,85.6,77,88.5z M77,88.5
			c0,2.2,1.8,2.2,2.2,2.2c0.5,0,3.1-0.1,3.1-4.2v-1C80.2,85.5,77,85.6,77,88.5z M77,88.5c0,2.2,1.8,2.2,2.2,2.2
			c0.5,0,3.1-0.1,3.1-4.2v-1C80.2,85.5,77,85.6,77,88.5z M77,88.5c0,2.2,1.8,2.2,2.2,2.2c0.5,0,3.1-0.1,3.1-4.2v-1
			C80.2,85.5,77,85.6,77,88.5z M77,88.5c0,2.2,1.8,2.2,2.2,2.2c0.5,0,3.1-0.1,3.1-4.2v-1C80.2,85.5,77,85.6,77,88.5z M122,79.5
			c-2.6,0-2.6,3.3-2.6,4.2h5.3C124.7,81.6,124.2,79.5,122,79.5z M122,79.5c-2.6,0-2.6,3.3-2.6,4.2h5.3
			C124.7,81.6,124.2,79.5,122,79.5z M77,88.5c0,2.2,1.8,2.2,2.2,2.2c0.5,0,3.1-0.1,3.1-4.2v-1C80.2,85.5,77,85.6,77,88.5z M77,88.5
			c0,2.2,1.8,2.2,2.2,2.2c0.5,0,3.1-0.1,3.1-4.2v-1C80.2,85.5,77,85.6,77,88.5z M122,79.5c-2.6,0-2.6,3.3-2.6,4.2h5.3
			C124.7,81.6,124.2,79.5,122,79.5z M122,79.5c-2.6,0-2.6,3.3-2.6,4.2h5.3C124.7,81.6,124.2,79.5,122,79.5z M77,88.5
			c0,2.2,1.8,2.2,2.2,2.2c0.5,0,3.1-0.1,3.1-4.2v-1C80.2,85.5,77,85.6,77,88.5z M77,88.5c0,2.2,1.8,2.2,2.2,2.2
			c0.5,0,3.1-0.1,3.1-4.2v-1C80.2,85.5,77,85.6,77,88.5z M79.9,106.7c-2.6,0-2.6,3.3-2.6,4.2h5.3C82.5,108.7,82,106.7,79.9,106.7z
			 M93.6,115.6c0,2.2,1.8,2.2,2.2,2.2c0.5,0,3.1-0.1,3.1-4.2v-1C96.9,112.7,93.6,112.8,93.6,115.6z M122,79.5
			c-2.6,0-2.6,3.3-2.6,4.2h5.3C124.7,81.6,124.2,79.5,122,79.5z M122,79.5c-2.6,0-2.6,3.3-2.6,4.2h5.3
			C124.7,81.6,124.2,79.5,122,79.5z M93.6,115.6c0,2.2,1.8,2.2,2.2,2.2c0.5,0,3.1-0.1,3.1-4.2v-1C96.9,112.7,93.6,112.8,93.6,115.6z
			 M79.9,106.7c-2.6,0-2.6,3.3-2.6,4.2h5.3C82.5,108.7,82,106.7,79.9,106.7z M77,88.5c0,2.2,1.8,2.2,2.2,2.2c0.5,0,3.1-0.1,3.1-4.2
			v-1C80.2,85.5,77,85.6,77,88.5z M167.4,67.3v-4.1c-2.9,0-5.3-2.4-5.3-5.3h-3.3c0,2.4-2,4.4-4.4,4.4c-2.4,0-4.4-2-4.4-4.4h-3.4
			c0,2.4-2,4.4-4.4,4.4c-2.4,0-4.4-2-4.4-4.4h-3.4c0,2.4-2,4.4-4.4,4.4c-2.4,0-4.4-2-4.4-4.4h-3.3c0,2.4-2,4.4-4.4,4.4
			c-2.4,0-4.4-2-4.4-4.4h-3.3c0,2.4-2,4.4-4.4,4.4c-2.4,0-4.4-2-4.4-4.4h-3.4c0,2.4-2,4.4-4.4,4.4c-2.4,0-4.4-2-4.4-4.4h-3.3
			c0,2.4-2,4.4-4.4,4.4c-2.4,0-4.4-2-4.4-4.4h-3.3c0,2.4-2,4.4-4.4,4.4c-2.4,0-4.4-2-4.4-4.4h-3.4c0,2.4-2,4.4-4.4,4.4
			s-4.4-2-4.4-4.4h-3.3c0,2.9-2.4,5.3-5.3,5.3v4.1c2.4,0,4.4,2,4.4,4.4c0,2.4-2,4.4-4.4,4.4v4c2.4,0,4.4,2,4.4,4.4
			c0,2.4-2,4.4-4.4,4.4v4c2.4,0,4.4,2,4.4,4.4c0,2.4-2,4.4-4.4,4.4v4c2.4,0,4.4,2,4.4,4.4s-2,4.4-4.4,4.4v4c2.4,0,4.4,2,4.4,4.4
			c0,2.4-2,4.4-4.4,4.4v4.1c2.4,0,4.4,2,4.4,4.4c0,2.4-2,4.4-4.4,4.4v4.1c2.4,0,4.4,2,4.4,4.4c0,2.4-2,4.4-4.4,4.4v4
			c2.4,0,4.4,2,4.4,4.4s-2,4.4-4.4,4.4v4c2.9,0,5.3,2.4,5.3,5.3h3.3c0-2.4,2-4.4,4.4-4.4s4.4,2,4.4,4.4h3.4c0-2.4,2-4.4,4.4-4.4
			c2.4,0,4.4,2,4.4,4.4H77c0-2.4,2-4.4,4.4-4.4c2.4,0,4.4,2,4.4,4.4h3.3c0-2.4,2-4.4,4.4-4.4c2.4,0,4.4,2,4.4,4.4h3.4
			c0-2.4,2-4.4,4.4-4.4c2.4,0,4.4,2,4.4,4.4h3.3c0-2.4,2-4.4,4.4-4.4c2.4,0,4.4,2,4.4,4.4h3.3c0-2.4,2-4.4,4.4-4.4
			c2.4,0,4.4,2,4.4,4.4h3.4c0-2.4,2-4.4,4.4-4.4c2.4,0,4.4,2,4.4,4.4h3.4c0-2.4,2-4.4,4.4-4.4c2.4,0,4.4,2,4.4,4.4h3.3
			c0-2.9,2.4-5.3,5.3-5.3v-4c-2.4,0-4.4-2-4.4-4.4s2-4.4,4.4-4.4v-4c-2.4,0-4.4-2-4.4-4.4c0-2.4,2-4.4,4.4-4.4v-4.1
			c-2.4,0-4.4-2-4.4-4.4c0-2.4,2-4.4,4.4-4.4v-4.1c-2.4,0-4.4-2-4.4-4.4c0-2.4,2-4.4,4.4-4.4v-4c-2.4,0-4.4-2-4.4-4.4s2-4.4,4.4-4.4
			v-4c-2.4,0-4.4-2-4.4-4.4c0-2.4,2-4.4,4.4-4.4v-4c-2.4,0-4.4-2-4.4-4.4c0-2.4,2-4.4,4.4-4.4v-4c-2.4,0-4.4-2-4.4-4.4
			C163,69.3,165,67.3,167.4,67.3z M95.3,76.4c2.1,0,3.9,0.4,4.7,0.7L99.9,81c-1.4-0.6-2.6-0.9-4.1-0.9c-1.3,0-1.9,0.7-1.9,1.2
			c0,1,0.8,1.4,3.6,2.5c1.8,0.7,3.6,1.8,3.6,5c0,3.8-2.8,5.2-6.3,5.2c-1.5,0-3.8-0.2-5.6-0.8l0.1-4c1.2,0.8,2.8,1.2,4.2,1.2
			c2.4,0,2.6-0.8,2.6-1.6s-1.3-1.1-3.6-2C90.7,86,89,84.5,89,81.5C89,79.7,90.3,76.4,95.3,76.4z M57,70.9h13.2v4h-8V80h7.6v4h-7.6
			v5.8h8.4v4H57V70.9z M62.9,121.2c-2.8,0-5.2-0.7-6.1-0.9l0.3-4.4c1.6,0.6,3,1.4,5,1.4c1.7,0,3.3-0.8,3.3-2.7c0-4.4-9-2.3-9-10.4
			c0-0.7,0.3-6.5,7.9-6.5c2.1,0,3.4,0.4,5.4,0.8l-0.2,4.2c-1.3-0.6-3.1-1.2-4.5-1.2c-1.7,0-3,0.8-3,2.5c0,4.2,9,2.2,9,10.3
			C70.9,118.6,67.4,121.2,62.9,121.2z M72.3,88.8c0-5.7,6.6-5.7,8.4-5.7h1.6c0-3.3-2.4-3.3-3.2-3.3c-1.3,0-2.7,0.3-4.7,1.5l-0.2-3.8
			c1.3-0.4,3.6-1.1,5.5-1.1c6,0,7.3,2.5,7.3,6.3v6.2c0,2.5,0,3.7,0.1,4.8h-4.7l-0.1-2.3h-0.1c-0.2,1-2.2,2.6-4.7,2.6
			C74.4,93.9,72.3,91.9,72.3,88.8z M87.2,113.7h-10c0,2,1.3,3.9,4.2,3.9c1.8,0,3.5-0.7,4.8-1.3l0.1,3.9c-1.7,0.6-3.6,1-5.4,1
			c-6,0-8.6-3.6-8.6-8.8c0-4.6,2.7-8.7,7.5-8.7c1.5,0,7.4,0,7.4,8.9V113.7z M99,120.9l-0.1-2.4h-0.1c-0.2,1.1-2.2,2.6-4.7,2.6
			c-3.2,0-5.3-2.1-5.3-5.2c0-5.7,6.6-5.7,8.4-5.7h1.6c0-3.3-2.4-3.3-3.2-3.3c-1.3,0-2.7,0.3-4.7,1.5l-0.2-3.8
			c1.3-0.4,3.6-1.1,5.5-1.1c6,0,7.3,2.5,7.3,6.3v6.2c0,2.5,0,3.7,0.1,4.8H99z M111.5,120.9h-5v-23h5V120.9z M113.1,93.5
			c-0.5,0.2-1.9,0.5-3.6,0.5c-2.7,0-5-1.3-5-5v-8.6h-2.8v-3.6h2.9v-3.5l5-1.6v5.1h3.3v3.6h-3.3v7.8c0,1.7,0.8,2.1,1.7,2.1
			c0.7,0,1.2-0.1,1.7-0.4V93.5z M119.6,121.1c-1.5,0-3.8-0.2-5.6-0.8l0.1-4c1.2,0.8,2.8,1.2,4.2,1.2c2.4,0,2.6-0.8,2.6-1.6
			c0-0.8-1.3-1.1-3.6-2c-1.8-0.8-3.6-2.2-3.6-5.2c0-1.8,1.3-5.1,6.4-5.1c2.1,0,3.9,0.4,4.7,0.7l-0.1,3.9c-1.4-0.6-2.7-0.9-4.2-0.9
			c-1.3,0-1.9,0.7-1.9,1.2c0,1,0.8,1.4,3.6,2.5c1.8,0.7,3.6,1.8,3.6,5C125.9,119.6,123,121.1,119.6,121.1z M129.4,86.5h-10
			c0,2,1.3,3.9,4.2,3.9c1.8,0,3.5-0.7,4.8-1.3l0.1,3.9c-1.7,0.6-3.6,1-5.4,1c-6,0-8.6-3.6-8.6-8.8c0-4.6,2.7-8.7,7.5-8.7
			c1.5,0,7.4,0,7.4,8.9V86.5z M142,81.2c-0.6-0.1-1-0.2-1.7-0.2c-3,0-3.4,2.6-3.4,5.1v7.6h-5.2V80.2c0-1.6,0-2.7-0.1-3.6h4.7
			c0,1,0.1,2.1,0.1,3.1h0.1c1-1.8,1.8-3.3,4.7-3.3h0.8V81.2z M122,79.5c-2.6,0-2.6,3.3-2.6,4.2h5.3C124.7,81.6,124.2,79.5,122,79.5z
			 M93.6,115.6c0,2.2,1.8,2.2,2.2,2.2c0.5,0,3.1-0.1,3.1-4.2v-1C96.9,112.7,93.6,112.8,93.6,115.6z M79.9,106.7
			c-2.6,0-2.6,3.3-2.6,4.2h5.3C82.5,108.7,82,106.7,79.9,106.7z M79.2,90.7c0.5,0,3.1-0.1,3.1-4.2v-1c-2.1,0-5.3,0.1-5.3,3
			C77,90.7,78.8,90.7,79.2,90.7z M77,88.5c0,2.2,1.8,2.2,2.2,2.2c0.5,0,3.1-0.1,3.1-4.2v-1C80.2,85.5,77,85.6,77,88.5z M93.6,115.6
			c0,2.2,1.8,2.2,2.2,2.2c0.5,0,3.1-0.1,3.1-4.2v-1C96.9,112.7,93.6,112.8,93.6,115.6z M122,79.5c-2.6,0-2.6,3.3-2.6,4.2h5.3
			C124.7,81.6,124.2,79.5,122,79.5z M122,79.5c-2.6,0-2.6,3.3-2.6,4.2h5.3C124.7,81.6,124.2,79.5,122,79.5z M93.6,115.6
			c0,2.2,1.8,2.2,2.2,2.2c0.5,0,3.1-0.1,3.1-4.2v-1C96.9,112.7,93.6,112.8,93.6,115.6z M77,88.5c0,2.2,1.8,2.2,2.2,2.2
			c0.5,0,3.1-0.1,3.1-4.2v-1C80.2,85.5,77,85.6,77,88.5z M77,88.5c0,2.2,1.8,2.2,2.2,2.2c0.5,0,3.1-0.1,3.1-4.2v-1
			C80.2,85.5,77,85.6,77,88.5z M122,79.5c-2.6,0-2.6,3.3-2.6,4.2h5.3C124.7,81.6,124.2,79.5,122,79.5z M122,79.5
			c-2.6,0-2.6,3.3-2.6,4.2h5.3C124.7,81.6,124.2,79.5,122,79.5z M77,88.5c0,2.2,1.8,2.2,2.2,2.2c0.5,0,3.1-0.1,3.1-4.2v-1
			C80.2,85.5,77,85.6,77,88.5z M77,88.5c0,2.2,1.8,2.2,2.2,2.2c0.5,0,3.1-0.1,3.1-4.2v-1C80.2,85.5,77,85.6,77,88.5z M122,79.5
			c-2.6,0-2.6,3.3-2.6,4.2h5.3C124.7,81.6,124.2,79.5,122,79.5z M122,79.5c-2.6,0-2.6,3.3-2.6,4.2h5.3
			C124.7,81.6,124.2,79.5,122,79.5z M77,88.5c0,2.2,1.8,2.2,2.2,2.2c0.5,0,3.1-0.1,3.1-4.2v-1C80.2,85.5,77,85.6,77,88.5z M77,88.5
			c0,2.2,1.8,2.2,2.2,2.2c0.5,0,3.1-0.1,3.1-4.2v-1C80.2,85.5,77,85.6,77,88.5z M77,88.5c0,2.2,1.8,2.2,2.2,2.2
			c0.5,0,3.1-0.1,3.1-4.2v-1C80.2,85.5,77,85.6,77,88.5z"/>
	</g>
</g>
<g>
</g>
<g>
</g>
<g>
</g>
<g>
</g>
<g>
</g>
<g>
</g>
</svg>
