<?xml version="1.0" encoding="utf-8"?>
<!-- Generator: Adobe Illustrator 18.1.1, SVG Export Plug-In . SVG Version: 6.00 Build 0)  -->
<!DOCTYPE svg PUBLIC "-//W3C//DTD SVG 1.1//EN" "http://www.w3.org/Graphics/SVG/1.1/DTD/svg11.dtd">
<svg version="1.1" id="Layer_1" xmlns="http://www.w3.org/2000/svg" xmlns:xlink="http://www.w3.org/1999/xlink" x="0px" y="0px"
	 width="256px" height="801.6px" viewBox="0 0 256 801.6" style="enable-background:new 0 0 256 801.6;" xml:space="preserve">
<g>
	<path style="fill:#A9263C;" d="M93.8,225.6l-38.3-44.7c-2.5-2.9-2.1-7.2,0.7-9.7l0,0c2.9-2.5,7.2-2.1,9.7,0.7l38.3,44.7
		c2.5,2.9,2.1,7.2-0.7,9.7l0,0C100.6,228.8,96.3,228.4,93.8,225.6z"/>
	<path style="fill:#F4D7B0;" d="M70.2,177.1l-10.6,8.7l-4.5-5.4c-2.3-2.7-1.9-6.8,0.9-9.1l0.6-0.5c2.7-2.3,6.8-1.9,9.1,0.9
		L70.2,177.1z"/>
</g>
<line style="fill:none;stroke:#F3BA50;stroke-width:2.4744;stroke-miterlimit:10;" x1="74.4" y1="239.7" x2="74.4" y2="0"/>
<g>
	<path style="fill:#A9263C;" d="M105.5,248.8L58,283.6c-3,2.2-7.4,1.6-9.6-1.5h0c-2.2-3-1.6-7.4,1.5-9.6l47.5-34.8
		c3-2.2,7.4-1.6,9.6,1.5h0C109.2,242.2,108.5,246.5,105.5,248.8z"/>
	<path style="fill:#6C091D;" d="M55.3,268.8l8.1,11.1l-5.7,4.2c-2.9,2.1-6.9,1.5-9-1.4l-0.5-0.6c-2.1-2.9-1.5-6.9,1.4-9L55.3,268.8z
		"/>
</g>
<g>
	<path style="fill:#DE3751;" d="M135,258.5l-42,41.2c-2.7,2.6-7.1,2.6-9.7-0.1h0c-2.6-2.7-2.6-7.1,0.1-9.7l42-41.2
		c2.7-2.6,7.1-2.6,9.7,0.1l0,0C137.8,251.5,137.7,255.8,135,258.5z"/>
	<path style="fill:#6C091D;" d="M88.2,285.3l9.4,10l-5.1,4.8c-2.6,2.4-6.7,2.3-9.1-0.3l-0.6-0.6c-2.4-2.6-2.3-6.7,0.3-9.1
		L88.2,285.3z"/>
</g>
<path style="fill:#DE3751;" d="M164.2,279.2c-3.4,6.3-7.4,12.1-11.7,17.3l-84.4-45.7c2-6.4,4.7-12.9,8.1-19.2
	c19.4-35.7,54.7-54,79-40.9S183.6,243.5,164.2,279.2z"/>
<path style="fill:#A9263C;" d="M161.2,195.1c-9.9,3.6-65.3,25.8-66.9,69.9l-1.1-0.4l-25.4-13.8c2-6.4,4.7-12.9,8.1-19.2
	c19.4-35.7,54.7-54,79-40.9C157.2,192,159.3,193.4,161.2,195.1z"/>
<ellipse style="fill:#F4D7B0;" cx="143.7" cy="189.1" rx="54.8" ry="45.2"/>
<path style="fill:#F0C69F;" d="M113.1,189.1c0,16.8,5.7,32.1,15.1,43.4c-22.7-5.5-39.3-22.9-39.3-43.4c0-20.5,16.6-37.9,39.3-43.4
	C118.8,157,113.1,172.3,113.1,189.1z"/>
<path style="fill:#452423;" d="M109.8,180.2c0,0.7-0.2,1.4-0.5,2H101c-0.3-0.6-0.5-1.3-0.5-2c0-2.6,2.1-4.6,4.6-4.6
	S109.8,177.6,109.8,180.2z"/>
<circle style="fill:#FFFFFF;" cx="103.5" cy="178.4" r="1.4"/>
<path style="fill:#452423;" d="M156.5,179.1c0,0.7-0.2,1.4-0.5,2h-8.4c-0.3-0.6-0.5-1.3-0.5-2c0-2.6,2.1-4.6,4.6-4.6
	C154.4,174.5,156.5,176.5,156.5,179.1z"/>
<circle style="fill:#FFFFFF;" cx="150.2" cy="177.3" r="1.4"/>
<path style="fill:#FFFFFF;" d="M157.5,198.7c0,13.5-12.3,24.5-27.5,24.5c-15.2,0-27.5-11-27.5-24.5c0-2.2,0.3-4.3,0.9-6.3h53.1
	C157.1,194.4,157.5,196.5,157.5,198.7z"/>
<path style="fill:#F2F2EB;" d="M121.1,221.9c-10.8-3.3-18.6-12.4-18.6-23.2c0-2.2,0.3-4.3,0.9-6.3h9.8
	C113.6,203.2,116.5,213.2,121.1,221.9z"/>
<path style="fill:#452423;" d="M219.4,167.7c0,23.2-14,43.1-33.9,51.8c5.3-7.6,8.3-16.5,8.3-26.1c0-27.2-24.6-49.3-54.8-49.3
	c-11.2,0-21.6,3-30.3,8.2c6.7-23.7,28.5-41.1,54.3-41.1C194.1,111.2,219.4,136.5,219.4,167.7z"/>
<path style="fill:#3D1E1C;" d="M152.3,145.1c0,0-4.8,18.8-26.3,23.1s-19.9,1.6-19.9,1.6s15.6-6.5,15.1-16.1c0,0-26.3,25.3-39.8,24.7
	c0,0,5.4-3.8,9.7-15.1c4.3-11.3,7-29,25.8-34.9c18.8-5.9,31.7-3.2,31.7-3.2L152.3,145.1z"/>
<path style="fill:#452423;" d="M198.4,181.9c0,0-17.7,16.1-14.5,33.1c3.2,16.9,10.5,32.3,4.8,41.1c-5.6,8.9,15.3-4.8,16.9-21.8
	C205.7,234.4,219.4,194.8,198.4,181.9z"/>
<path style="fill:#452423;" d="M189.2,144.8c0,0-14,19.5-7.3,35.4s17,29.3,13.4,39.2c-3.7,9.9,14-7.9,12-24.8
	C207.3,194.5,212.4,153,189.2,144.8z"/>
<path style="fill:#452423;" d="M202,138.1c0,0-17.7,25.5-9.4,47s21.2,39.9,16.5,52.9s17.6-10.1,15.3-32.7
	C224.4,205.2,231.1,150,202,138.1z"/>
<path style="fill:#F3BA50;" d="M122.8,131.6c0,0,31.7-2.2,43,3.8c0,0-13.4-24.7-19.9-24.7S122.8,131.6,122.8,131.6z"/>
<path style="fill:#E79F39;" d="M139.2,121.5c0.5,3.8,1.9,7.1,3.8,9.9c-10.7-0.4-20.7,0.2-20.7,0.2s9.6-12,17-17.9
	C138.9,116.2,138.9,118.8,139.2,121.5z"/>
<g id="gaSG3n_1_">
	<g>
		<path style="fill:#DE3751;" d="M143.1,128.4c-2.1,0,2.6,0,0.5,0c0-1,0-2-0.1-2.9c0-0.4,0.1-0.4,0.4-0.4c0.9,0.1,1.7,0.2,2.6,0.3
			c-0.1-0.3-0.1-0.5-0.2-0.7c-0.1-0.2,0-0.4,0.2-0.6c0.4-0.3,0.8-0.7,1.2-1c0.5-0.4,1-0.9,1.5-1.3c-0.2-0.1-0.3-0.2-0.5-0.3
			c-0.2-0.1-0.3-0.2-0.2-0.4c0.1-0.3,0.2-0.6,0.2-0.9c0.1-0.3,0.1-0.6,0.2-0.9c-0.1,0-0.2,0-0.3,0c-0.4,0.1-0.8,0.2-1.3,0.3
			c-0.2,0.1-0.4,0-0.4-0.3c-0.1-0.2-0.1-0.4-0.2-0.6c-0.1,0.1-0.2,0.2-0.2,0.3c-0.3,0.4-0.7,0.8-1,1.2c-0.1,0.1-0.3,0.1-0.4,0.2
			c0-0.1-0.1-0.3-0.1-0.4c0-0.4,0.1-0.8,0.2-1.2c0.1-0.6,0.2-1.2,0.3-1.9c-0.2,0.1-0.4,0.2-0.6,0.3c-0.4,0.2-0.5,0.2-0.7-0.2
			c-0.3-0.6-0.6-1.2-0.9-1.8c-0.3,0.7-0.6,1.3-1,1.9c-0.2,0.3-0.3,0.3-0.6,0.2c-0.2-0.1-0.5-0.2-0.7-0.4c0.1,0.6,0.2,1.1,0.3,1.6
			c0.1,0.5,0.2,1.1,0.3,1.6c0,0.1-0.1,0.3-0.1,0.3c-0.1,0-0.2,0-0.3-0.1c-0.1-0.1-0.2-0.3-0.4-0.4c-0.3-0.4-0.6-0.7-0.9-1.1
			c-0.1,0.2-0.1,0.3-0.1,0.4c-0.1,0.5-0.1,0.5-0.7,0.4c-0.4-0.1-0.8-0.2-1.3-0.3c0,0.1,0,0.2,0,0.3c0.1,0.5,0.3,1,0.4,1.6
			c0.1,0.2,0,0.3-0.2,0.4c-0.2,0.1-0.3,0.2-0.5,0.3c0.9,0.8,1.8,1.6,2.7,2.3c0.2,0.2,0.3,0.4,0.2,0.6c-0.1,0.2-0.1,0.5-0.2,0.7
			c0.9-0.1,1.8-0.2,2.6-0.3c0.2,0,0.4,0,0.4,0.3C143.2,126.4,143.1,127.4,143.1,128.4z"/>
		<path style="fill:#DE3751;" d="M143.1,128.4c0-1,0.1-2,0.1-3c0-0.3-0.2-0.3-0.4-0.3c-0.9,0.1-1.7,0.2-2.6,0.3
			c0.1-0.3,0.1-0.5,0.2-0.7c0.1-0.2,0-0.4-0.2-0.6c-0.9-0.8-1.8-1.5-2.7-2.3c0.2-0.1,0.4-0.2,0.5-0.3c0.2-0.1,0.2-0.2,0.2-0.4
			c-0.1-0.5-0.3-1-0.4-1.6c0-0.1,0-0.1,0-0.3c0.5,0.1,0.9,0.2,1.3,0.3c0.5,0.1,0.5,0.1,0.7-0.4c0-0.1,0.1-0.3,0.1-0.4
			c0.3,0.4,0.6,0.7,0.9,1.1c0.1,0.1,0.2,0.3,0.4,0.4c0.1,0.1,0.2,0.1,0.3,0.1c0.1,0,0.1-0.2,0.1-0.3c-0.1-0.5-0.2-1.1-0.3-1.6
			c-0.1-0.5-0.2-1-0.3-1.6c0.3,0.1,0.5,0.3,0.7,0.4c0.3,0.2,0.4,0.1,0.6-0.2c0.3-0.6,0.6-1.2,1-1.9c0.3,0.6,0.6,1.2,0.9,1.8
			c0.2,0.4,0.3,0.5,0.7,0.2c0.2-0.1,0.4-0.2,0.6-0.3c-0.1,0.7-0.2,1.3-0.3,1.9c-0.1,0.4-0.2,0.8-0.2,1.2c0,0.1,0.1,0.3,0.1,0.4
			c0.1-0.1,0.3-0.1,0.4-0.2c0.3-0.4,0.7-0.8,1-1.2c0.1-0.1,0.1-0.2,0.2-0.3c0.1,0.2,0.1,0.4,0.2,0.6c0.1,0.2,0.2,0.3,0.4,0.3
			c0.4-0.1,0.8-0.2,1.3-0.3c0.1,0,0.1,0,0.3,0c-0.1,0.3-0.1,0.6-0.2,0.9c-0.1,0.3-0.2,0.6-0.2,0.9c-0.1,0.2,0,0.4,0.2,0.4
			c0.2,0.1,0.3,0.2,0.5,0.3c-0.5,0.4-1,0.9-1.5,1.3c-0.4,0.3-0.8,0.7-1.2,1c-0.2,0.2-0.2,0.4-0.2,0.6c0.1,0.2,0.1,0.5,0.2,0.7
			c-0.9-0.1-1.7-0.2-2.6-0.3c-0.4,0-0.4,0-0.4,0.4c0,1,0,2,0.1,2.9C143.4,128.4,143.2,128.4,143.1,128.4z"/>
	</g>
</g>
<g>
	<path style="fill:#A9263C;" d="M113.9,250.8l-41.8-41.4c-2.7-2.7-2.7-7-0.1-9.7h0c2.7-2.7,7-2.7,9.7-0.1l41.8,41.4
		c2.7,2.7,2.7,7,0.1,9.7l0,0C121,253.4,116.6,253.4,113.9,250.8z"/>
	<path style="fill:#F4D7B0;" d="M86.4,204.3l-9.9,9.5l-4.9-5c-2.5-2.5-2.4-6.6,0.1-9.1l0.6-0.6c2.5-2.5,6.6-2.4,9.1,0.1L86.4,204.3z
		"/>
</g>
<g>
	<path style="fill:#DE3751;" d="M91.8,209.2l18.5,18.3c-3.1,3.4-5.9,7.2-8.2,11.2l-19-18.8l-6.4-6.4l9.8-9.5"/>
	<line style="fill:#F4D7B0;" x1="76.6" y1="213.5" x2="76.6" y2="213.5"/>
</g>
<path style="fill:#F3BA50;" d="M75.9,231.6c0,0,39.4,36.1,93.4,34.5c0,0-3,12.5-7.3,16.1c-4.3,3.6-59.5-7.5-92.1-39.1L75.9,231.6z"
	/>
<g>
	<path style="fill:#A9263C;" d="M76.3,664l-12.2-53.3c-0.7-3.1,1.3-6.2,4.4-6.9l0.9-0.2c3.1-0.7,6.2,1.3,6.9,4.4l12.2,53.3
		c0.7,3.1-1.3,6.2-4.4,6.9l-0.9,0.2C80.1,669.1,77,667.1,76.3,664z"/>
	<path style="fill:#F4D7B0;" d="M77.7,614.3l-12.3,2.5l-1.3-6.3c-0.7-3.2,1.4-6.3,4.6-7l0.7-0.2c3.2-0.7,6.3,1.4,7,4.6L77.7,614.3z"
		/>
</g>
<g>
	<path style="fill:#DE3751;" d="M121.5,705.1l52.9,13.7c3.1,0.8,5,4,4.2,7.1l-0.2,0.9c-0.8,3.1-4,5-7.1,4.2l-52.9-13.7
		c-3.1-0.8-5-4-4.2-7.1l0.2-0.9C115.3,706.1,118.4,704.3,121.5,705.1z"/>
	<path style="fill:#F4D7B0;" d="M165,729.2l3.4-12l6.2,1.7c3.1,0.9,5,4.1,4.1,7.2l-0.2,0.7c-0.9,3.1-4.1,5-7.3,4.1L165,729.2z"/>
</g>
<path style="fill:#DE3751;" d="M88.2,738.8l-50.2-21.6c-2.9-1.3-4.3-4.7-3-7.6l0.4-0.9c1.3-2.9,4.7-4.3,7.6-3l50.2,21.6
	c2.9,1.3,4.3,4.7,3,7.6l-0.4,0.9C94.5,738.7,91.1,740.1,88.2,738.8z"/>
<path style="fill:#A9263C;" d="M74.3,705.3l-46.3-29c-2.7-1.7-3.5-5.3-1.8-8l0.5-0.8c1.7-2.7,5.3-3.5,8-1.8l46.3,29
	c2.7,1.7,3.5,5.3,1.8,8l-0.5,0.8C80.6,706.2,77,707,74.3,705.3z"/>
<path style="fill:#6C091D;" d="M40,669.3l-6.6,10.6l-5.5-3.4c-2.8-1.7-3.6-5.4-1.9-8.1l0.4-0.6c1.7-2.8,5.4-3.6,8.1-1.9L40,669.3z"
	/>
<path style="fill:#6C091D;" d="M48.9,708.4l-5.2,11.4l-5.9-2.6c-3-1.3-4.3-4.8-3-7.8l0.3-0.7c1.3-3,4.8-4.3,7.8-3L48.9,708.4z"/>
<path style="fill:#DE3751;" d="M104.6,744.8c-5.9,2.9-11.9,5.1-17.8,6.7l-38.5-78.6c4.9-3.7,10.3-7.1,16.2-10
	c33.3-16.3,69.3-11.2,80.4,11.4S137.9,728.5,104.6,744.8z"/>
<path style="fill:#A9263C;" d="M147,680.7c-9.3-2.6-62.2-15.4-86.7,16.5l-0.6-0.9L48,672.7c4.9-3.7,10.3-7.1,16.2-10
	c33.3-16.3,69.3-11.2,80.4,11.4C145.6,676.2,146.4,678.4,147,680.7z"/>
<ellipse style="fill:#F4D7B0;" cx="126.8" cy="647.5" rx="50.1" ry="45"/>
<path style="fill:#3D1E1C;" d="M200.2,623.6c0,21.2-12.7,39.3-31,47.3c4.8-6.9,7.6-15.1,7.6-23.8c0-24.8-22.4-45-50.1-45
	c-10.2,0-19.8,2.8-27.7,7.5c6.1-21.7,26-37.5,49.6-37.5C177.2,572,200.2,595.1,200.2,623.6z"/>
<path style="fill:#3D1E1C;" d="M141,606c0,0-7.1,16.2-27.1,16.9s-18.2-1.5-18.2-1.5s15-3.5,15.9-12.3c0,0-27.5,18.9-39.5,16.4
	c0,0,5.4-2.6,10.9-12.1c5.5-9.5,10.6-25.1,28.4-27.7s29,1.8,29,1.8L141,606z"/>
<path style="fill:#452423;" d="M162.6,601.2H142c0,0,22.1,19.1,13.2,35.8c0,0,15.2-8.3,11.3-22.1"/>
<path style="fill:#3D1E1C;stroke:#3D1E1C;stroke-width:1.9629;stroke-linecap:round;stroke-linejoin:round;stroke-miterlimit:10;" d="
	M153.9,612.3c0,0,4.4,29.4,2.2,38.3c-2.2,8.8,0.7,30.9,16.9,32.4s2.9-1.5,39-39c36.1-37.5,28.7-55.2,36.8-58.1
	c8.1-2.9-5.9-4.4-29.4,0s11-21.3,11-21.3s-18.4-7.4-31.7-2.9s-26.5,2.9-26.5,2.9l-11-14L146.5,572"/>
<ellipse transform="matrix(0.9925 -0.1221 0.1221 0.9925 -80.5575 17.8613)" style="fill:#FFFFFF;" cx="105.5" cy="666.5" rx="7.3" ry="8.8"/>
<path style="fill:#F2F2EB;" d="M104.6,675.2c-3.2-0.6-5.9-3.8-6.4-7.8c-0.5-3.7,1.1-7.2,3.7-8.8
	C102.5,664.3,103.4,669.8,104.6,675.2z"/>
<circle style="fill:#FFFFFF;stroke:#F4D7B0;stroke-width:0.9815;stroke-miterlimit:10;" cx="88" cy="638.7" r="12.6"/>
<circle style="fill:#FFFFFF;" cx="130.2" cy="638.7" r="12.6"/>
<circle style="fill:#26A9E0;" cx="126.3" cy="637.3" r="2.8"/>
<circle style="fill:#26A9E0;" cx="82.6" cy="637.3" r="2.8"/>
<path style="fill:#3D1E1C;" d="M136.3,588.4c0,0-8.8,8.5-0.7,18.6c7.2,8.9,21.3,16,24.3,20.5c0.4,0.6,0.6,1.2,0.5,1.8
	c-0.7,4.3,11.1-2.6,3.9-17.7C157.2,596.6,136.3,588.4,136.3,588.4z"/>
<path style="fill:#F3BA50;" d="M122.5,573.3c0,0,26.8-1.8,36.3,3.2c0,0-11.4-20.9-16.8-20.9S122.5,573.3,122.5,573.3z"/>
<path style="fill:#E79F39;" d="M136.4,564.7c0.5,3.2,1.6,6,3.2,8.3c-9.1-0.4-17.5,0.2-17.5,0.2s8.1-10.2,14.4-15.1
	C136.1,560.2,136,562.5,136.4,564.7z"/>
<g id="gaSG3n_2_">
	<g>
		<path style="fill:#DE3751;" d="M139.6,570.6c-1.8,0,2.2,0,0.4,0c0-0.8,0-1.6-0.1-2.5c0-0.3,0.1-0.3,0.4-0.3
			c0.7,0.1,1.4,0.2,2.2,0.3c-0.1-0.2-0.1-0.4-0.2-0.6c-0.1-0.2,0-0.4,0.1-0.5c0.3-0.3,0.7-0.6,1-0.9c0.4-0.4,0.8-0.7,1.3-1.1
			c-0.2-0.1-0.3-0.2-0.4-0.2c-0.2-0.1-0.2-0.2-0.2-0.4c0.1-0.3,0.1-0.5,0.2-0.8c0.1-0.2,0.1-0.5,0.2-0.8c-0.1,0-0.2,0-0.2,0
			c-0.4,0.1-0.7,0.2-1.1,0.2c-0.2,0-0.3,0-0.3-0.2c0-0.2-0.1-0.3-0.2-0.5c-0.1,0.1-0.1,0.1-0.2,0.2c-0.3,0.3-0.6,0.7-0.9,1
			c-0.1,0.1-0.2,0.1-0.3,0.2c0-0.1-0.1-0.3-0.1-0.4c0-0.3,0.1-0.7,0.2-1c0.1-0.5,0.2-1,0.3-1.6c-0.2,0.1-0.4,0.2-0.5,0.3
			c-0.4,0.2-0.4,0.2-0.6-0.2c-0.3-0.5-0.5-1-0.8-1.5c-0.3,0.6-0.5,1.1-0.8,1.6c-0.1,0.3-0.2,0.3-0.5,0.2c-0.2-0.1-0.4-0.2-0.6-0.3
			c0.1,0.5,0.2,0.9,0.2,1.3c0.1,0.5,0.2,0.9,0.2,1.4c0,0.1,0,0.2-0.1,0.3c-0.1,0-0.2,0-0.3-0.1c-0.1-0.1-0.2-0.2-0.3-0.4
			c-0.3-0.3-0.5-0.6-0.8-0.9c0,0.2-0.1,0.3-0.1,0.4c-0.1,0.5-0.1,0.5-0.6,0.4c-0.4-0.1-0.7-0.1-1.1-0.2c0,0.1,0,0.2,0,0.2
			c0.1,0.4,0.2,0.9,0.3,1.3c0,0.2,0,0.3-0.2,0.3c-0.1,0.1-0.3,0.1-0.5,0.2c0.8,0.7,1.5,1.3,2.3,2c0.2,0.1,0.2,0.3,0.2,0.5
			c-0.1,0.2-0.1,0.4-0.2,0.6c0.8-0.1,1.5-0.2,2.2-0.3c0.2,0,0.3,0,0.3,0.2C139.7,568.9,139.6,569.7,139.6,570.6z"/>
		<path style="fill:#DE3751;" d="M139.6,570.6c0-0.9,0.1-1.7,0.1-2.6c0-0.2-0.2-0.2-0.3-0.2c-0.7,0.1-1.5,0.2-2.2,0.3
			c0.1-0.2,0.1-0.4,0.2-0.6c0.1-0.2,0-0.4-0.2-0.5c-0.8-0.6-1.5-1.3-2.3-2c0.2-0.1,0.3-0.2,0.5-0.2c0.2-0.1,0.2-0.2,0.2-0.3
			c-0.1-0.4-0.2-0.9-0.3-1.3c0-0.1,0-0.1,0-0.2c0.4,0.1,0.7,0.2,1.1,0.2c0.5,0.1,0.5,0.1,0.6-0.4c0-0.1,0.1-0.2,0.1-0.4
			c0.3,0.3,0.5,0.6,0.8,0.9c0.1,0.1,0.2,0.3,0.3,0.4c0.1,0.1,0.2,0.1,0.3,0.1c0.1,0,0.1-0.2,0.1-0.3c-0.1-0.5-0.1-0.9-0.2-1.4
			c-0.1-0.4-0.2-0.9-0.2-1.3c0.2,0.1,0.4,0.2,0.6,0.3c0.3,0.1,0.4,0.1,0.5-0.2c0.3-0.5,0.5-1,0.8-1.6c0.3,0.5,0.5,1,0.8,1.5
			c0.2,0.4,0.3,0.4,0.6,0.2c0.2-0.1,0.3-0.2,0.5-0.3c-0.1,0.6-0.2,1.1-0.3,1.6c-0.1,0.3-0.1,0.7-0.2,1c0,0.1,0.1,0.3,0.1,0.4
			c0.1-0.1,0.2-0.1,0.3-0.2c0.3-0.3,0.6-0.7,0.9-1c0.1-0.1,0.1-0.1,0.2-0.2c0.1,0.2,0.1,0.4,0.2,0.5c0,0.2,0.2,0.3,0.3,0.2
			c0.4-0.1,0.7-0.2,1.1-0.2c0.1,0,0.1,0,0.2,0c-0.1,0.3-0.1,0.5-0.2,0.8c-0.1,0.3-0.1,0.5-0.2,0.8c-0.1,0.2,0,0.3,0.2,0.4
			c0.1,0.1,0.3,0.1,0.4,0.2c-0.4,0.4-0.9,0.7-1.3,1.1c-0.3,0.3-0.7,0.6-1,0.9c-0.2,0.1-0.2,0.3-0.1,0.5c0.1,0.2,0.1,0.4,0.2,0.6
			c-0.7-0.1-1.5-0.2-2.2-0.3c-0.3,0-0.4,0-0.4,0.3c0,0.8,0,1.6,0.1,2.5C139.9,570.6,139.7,570.6,139.6,570.6z"/>
	</g>
</g>
<path style="fill:#F3BA50;" d="M66.8,661.3c0,0,11.1,47.5,52.6,74.1c0,0-8.7,7.9-13.8,8.3c-5.1,0.5-40.9-36.3-49.3-76.9L66.8,661.3z
	"/>
<g>
	<g>
		<path style="fill:#F3BA50;" d="M74.1,688.1c0.1-10,3-19.5,2.5-29.5c-0.5-9.3-3.1-18-2.4-27.5c0.6-9.6,3.1-18.3,2-28
			c-1-9.5-3.1-18.1-1.8-27.8c1.3-9.2,2.8-17.8,1.2-27.1c-1.6-9.5-2.6-18.5-0.8-28c1.7-9,1.9-17.9,0.1-27c-1.8-9.3-1.5-18.2,0.2-27.5
			c1-5.7,1.2-11.5,0.8-17.3c-0.4-4.4-1.6-8.7-2.1-13.2c-1.3-11.3,2.1-21.9,2.2-33.1c0-0.4-2.1-0.7-2.1-0.6c-0.1,10-3,19.5-2.5,29.5
			c0.5,9.4,3.1,18,2.4,27.5c-0.6,9.6-3.1,18.3-2,28c1,9.5,3.1,18.1,1.8,27.8c-1.3,9.2-2.8,17.8-1.2,27.1c1.6,9.5,2.6,18.5,0.8,28
			c-1.7,9-1.9,17.9-0.1,27c1.8,9.3,1.5,18.2-0.2,27.5c-1,5.7-1.2,11.5-0.8,17.3c0.4,4.4,1.6,8.7,2.1,13.2
			c1.3,11.3-2.1,21.9-2.2,33.1C72,687.9,74.1,688.2,74.1,688.1L74.1,688.1z"/>
	</g>
</g>
<g>
</g>
<g>
</g>
<g>
</g>
<g>
</g>
<g>
</g>
<g>
</g>
</svg>
