<svg xmlns="http://www.w3.org/2000/svg" width="347.8" height="68.1" viewBox="0 0 347.8 68.1">
  <path d="M41.7 60.9c-9.5-13.5-20.5-25.7-33-36.5-4.9-4.2-12 2.9-7.1 7.1C13.5 41.7 24 53.2 33.1 65.9c3.6 5.2 12.3.2 8.6-5z" fill="#E79F39"/>
  <path d="M184.4 58.6c1-18.6-.7-37.2-5-55.3-1.3-5.7-10.2-3.3-8.8 2.4 4.1 17.4 5.6 35.1 4.6 52.9-.3 5.9 8.9 5.9 9.2 0z" fill="#E79F39"/>
  <path d="M328.9 59c3.5-15.1 9.5-29.2 18-42.1 3.5-5.4-5.1-10.4-8.6-5-8.9 13.6-15.4 28.7-19.1 44.5-1.4 6.2 8.3 8.9 9.7 2.6z" fill="#E79F39"/>
</svg>
